<svg width="240" height="64" viewBox="0 0 240 64" fill="none" xmlns="http://www.w3.org/2000/svg">
<path d="M30.4 50.5L25.6 51.7C25.0667 49.8334 24.6333 48.0334 24.3 46.3C23.9667 44.5667 23.7 43.0334 23.5 41.7C23.3667 40.3 23.3 39.1334 23.3 38.2C23.3 36.0667 23.6333 34.2 24.3 32.6C24.9667 31 25.8 29.6 26.8 28.4C27.9333 27.2 29.1 26.2334 30.3 25.5C31.5 24.7 32.6667 24.1334 33.8 23.8C35 23.4 36 23.2 36.8 23.2C37.6667 23.2 38.3667 23.4334 38.9 23.9C39.4333 24.3 39.9333 24.9334 40.4 25.8C40.8 26.6 41.2667 27.6 41.8 28.8C42.3333 30.0667 42.8 31.0334 43.2 31.7C43.6667 32.3 44.1333 32.7 44.6 32.9C45.0667 33.1667 45.6 33.3 46.2 33.3C47.0667 33.3 47.7 33.5334 48.1 34C48.5 34.4 48.7 34.9334 48.7 35.6C48.7 36.3334 48.4667 36.9667 48 37.5C47.4667 37.9667 46.7333 38.2 45.8 38.2C44.6667 38.2 43.6667 38 42.8 37.6C42 37.2 41.2667 36.6334 40.6 35.9L41.5 34.8C41.3 35.5334 41.0333 36.2 40.7 36.8C40.3 37.3334 39.8 37.7667 39.2 38.1C38.6667 38.4334 37.9333 38.6 37 38.6C36.2 38.6 35.4333 38.5 34.7 38.3C33.9 38.0334 33.1333 37.6667 32.4 37.2C31.6667 36.7334 30.9667 36.1667 30.3 35.5C29.6333 34.8334 29 34.0334 28.4 33.1L29.6 32.8C29.1333 33.6 28.7667 34.5 28.5 35.5C28.3 36.5 28.2 37.4667 28.2 38.4C28.2 39.1334 28.2667 40 28.4 41C28.5333 42 28.7 43.0667 28.9 44.2C29.1 45.2667 29.3333 46.3667 29.6 47.5C29.8667 48.5667 30.1333 49.5667 30.4 50.5ZM37 33.7C37.4 33.7 37.7333 33.6334 38 33.5C38.2667 33.3667 38.4333 33.1667 38.5 32.9C38.6333 32.6334 38.6333 32.3334 38.5 32C38.2333 31.4 38 30.8667 37.8 30.4C37.6 29.9334 37.3667 29.5334 37.1 29.2C36.9667 28.8667 36.7667 28.6 36.5 28.4C36.3667 28.2667 36.1667 28.2 35.9 28.2C35.6333 28.2 35.2667 28.3 34.8 28.5C34.4 28.7 33.9667 28.9334 33.5 29.2C33.0333 29.4667 32.6667 29.7334 32.4 30C32.0667 30.2667 31.9 30.4667 31.9 30.6L31.4 29.5C31.8667 30.3 32.3667 31.0334 32.9 31.7C33.5 32.3 34.1667 32.8 34.9 33.2C35.5667 33.5334 36.2667 33.7 37 33.7ZM50.8 38.2H45.9L46.2 33.3H51.1C51.9667 33.3 52.6 33.2334 53 33.1C53.4667 33.0334 53.7667 32.9 53.9 32.7C54.0333 32.5 54.1 32.2667 54.1 32C54.1 31.5334 53.9333 31.0334 53.6 30.5C53.2667 29.9667 52.8 29.4 52.2 28.8C51.6 28.1334 51 27.5 50.4 26.9C49.8 26.3 49.2 25.7334 48.6 25.2C48 24.6667 47.5333 24.2 47.2 23.8C46.8667 23.3334 46.7 23.0334 46.7 22.9C46.7 22.2334 46.7333 21.7 46.8 21.3C46.8667 20.9 46.9333 20.6 47 20.4C47.2 20.1334 47.3667 19.9334 47.5 19.8C47.9 19.4 48.5 18.9667 49.3 18.5C50.1 17.9667 51.0333 17.4 52.1 16.8C53.1667 16.2667 54.4 15.6667 55.8 15C57.1333 14.3334 58.5667 13.6667 60.1 13L62.1 17.3C60.5 17.9667 59.1 18.6 57.9 19.2C56.7 19.7334 55.6333 20.2334 54.7 20.7C53.7667 21.1667 52.9333 21.6334 52.2 22.1C51.4667 22.5 50.8 22.9 50.2 23.3L50.6 20.7C51.6 21.5667 52.5 22.3667 53.3 23.1C54.1 23.9 54.8667 24.6667 55.6 25.4C56.2667 26.2 56.9 27 57.5 27.8C58.1667 28.6 58.8 29.5 59.4 30.5C59.8667 31.3 60.3667 31.9 60.9 32.3C61.5 32.7 62.0333 32.9667 62.5 33.1C63.1 33.2334 63.6 33.3 64 33.3C64.8667 33.3 65.5 33.5334 65.9 34C66.3 34.4 66.5 34.9334 66.5 35.6C66.5 36.3334 66.2333 36.9667 65.7 37.5C65.2333 37.9667 64.5333 38.2 63.6 38.2C62.8667 38.2 62.0333 38.0667 61.1 37.8C60.2333 37.5334 59.4333 37.1 58.7 36.5C57.9 35.8334 57.3 35 56.9 34L58.8 34.1C58.4667 34.8334 58.0333 35.4667 57.5 36C57.0333 36.5334 56.5 36.9667 55.9 37.3C55.2333 37.5667 54.4667 37.8 53.6 38C52.8 38.1334 51.8667 38.2 50.8 38.2ZM63.7 38.2L64 33.3C64.8667 33.3 65.6 33.2 66.2 33C66.8 32.8667 67.3 32.5334 67.7 32C68.1667 31.5334 68.5333 30.8 68.8 29.8C69.0667 28.8 69.3333 27.5 69.6 25.9L74.2 26.7C74.1333 27.0334 74.0667 27.4334 74 27.9C73.9333 28.3667 73.8333 28.8334 73.7 29.3C73.7 29.7667 73.7 30.2 73.7 30.6C73.7 31.0667 73.7667 31.4667 73.9 31.8C74.1 32.1334 74.3667 32.4 74.7 32.6C75.1 32.8 75.5667 32.9667 76.1 33.1C76.7 33.2334 77.4333 33.3 78.3 33.3C79.2333 33.3 79.8667 33.5334 80.2 34C80.6 34.4 80.8 34.9334 80.8 35.6C80.8 36.3334 80.5333 36.9667 80 37.5C79.5333 37.9667 78.8667 38.2 78 38.2C76.9333 38.2 75.9667 38.1 75.1 37.9C74.3 37.7667 73.5667 37.5 72.9 37.1C72.3 36.7 71.8 36.2 71.4 35.6C71 34.9334 70.7667 34.1334 70.7 33.2H72.4C72 34.3334 71.4667 35.2334 70.8 35.9C70.1333 36.5667 69.4 37.0667 68.6 37.4C67.8 37.6667 67 37.8667 66.2 38C65.3333 38.1334 64.5 38.2 63.7 38.2ZM73.4 46.3C72.7333 46.3 72.1667 46.0667 71.7 45.6C71.2333 45.0667 71 44.5 71 43.9C71 43.2334 71.2333 42.6334 71.7 42.1C72.1667 41.6334 72.7333 41.4 73.4 41.4C74.0667 41.4 74.6333 41.6334 75.1 42.1C75.5667 42.6334 75.8 43.2334 75.8 43.9C75.8 44.5 75.5667 45.0667 75.1 45.6C74.6333 46.0667 74.0667 46.3 73.4 46.3ZM67.4 46.3C66.7333 46.3 66.1333 46.0667 65.6 45.6C65.1333 45.0667 64.9 44.5 64.9 43.9C64.9 43.2334 65.1333 42.6334 65.6 42.1C66.1333 41.6334 66.7333 41.4 67.4 41.4C68.0667 41.4 68.6333 41.6334 69.1 42.1C69.5667 42.6334 69.8 43.2334 69.8 43.9C69.8 44.5 69.5667 45.0667 69.1 45.6C68.6333 46.0667 68.0667 46.3 67.4 46.3ZM78 38.2L78.3 33.3C79.4333 33.3 80.2 33.1667 80.6 32.9C81.0667 32.7 81.3667 32.3 81.5 31.7C81.5667 31.0334 81.6 30.1334 81.6 29L81 12.4H86L86.6 28.9C86.6 30.1 86.7333 31 87 31.6C87.2 32.2667 87.5667 32.7 88.1 32.9C88.7 33.1667 89.4667 33.3 90.4 33.3C91.2667 33.3 91.9 33.5334 92.3 34C92.6333 34.4 92.8 34.9334 92.8 35.6C92.8 36.3334 92.5667 36.9667 92.1 37.5C91.6333 37.9667 90.9333 38.2 90 38.2C89 38.2 88.0667 38.0667 87.2 37.8C86.2667 37.6 85.5 37.1667 84.9 36.5C84.3667 35.8334 84 34.9 83.8 33.7H85.3C84.9 34.9 84.4 35.8334 83.8 36.5C83.1333 37.1 82.3333 37.5334 81.4 37.8C80.4667 38.0667 79.3333 38.2 78 38.2ZM90 38.2L90.4 33.3C91.4667 33.3 92.3 33.2667 92.9 33.2C93.5 33.2 93.9667 33.2 94.3 33.2C94.5667 33.1334 94.8 33.1 95 33.1C94.8 32.8334 94.5 32.4667 94.1 32C93.7667 31.6 93.4333 31.0334 93.1 30.3C92.8333 29.6334 92.7 28.8 92.7 27.8C92.7 26.4 93.0667 25.1667 93.8 24.1C94.5333 23.0334 95.5333 22.1667 96.8 21.5C98.0667 20.9 99.4667 20.6 101 20.6C101.733 20.6 102.433 20.6667 103.1 20.8C103.767 20.8667 104.4 21 105 21.2L104.3 25.8C103.833 25.7334 103.333 25.6667 102.8 25.6C102.267 25.5334 101.8 25.5 101.4 25.5C100.667 25.5 100 25.6 99.4 25.8C98.8667 26.0667 98.4333 26.4334 98.1 26.9C97.7667 27.3 97.6 27.8 97.6 28.4C97.6 28.8 97.6667 29.1667 97.8 29.5C98 29.8334 98.2 30.1667 98.4 30.5C98.6667 30.7667 98.9333 31 99.2 31.2C99.4667 31.4 99.7333 31.5667 100 31.7C100.267 31.8334 100.5 31.9334 100.7 32C101.3 31.8 101.8 31.6667 102.2 31.6C102.667 31.4 103.1 31.2667 103.5 31.2C103.9 31.0667 104.333 30.8667 104.8 30.6C105.333 30.4 105.933 30.1667 106.6 29.9L108.2 34.5C106.267 35.4334 104.367 36.1667 102.5 36.7C100.633 37.2334 98.7 37.6 96.7 37.8C94.7 38.0667 92.4667 38.2 90 38.2ZM125.7 50.6L121.1 51.7C120.633 50.1 120.267 48.6 120 47.2C119.733 45.8 119.533 44.5334 119.4 43.4C119.2 42.2667 119.1 41.3 119.1 40.5C119.1 38.8334 119.367 37.4667 119.9 36.4C120.5 35.2667 121.267 34.4 122.2 33.8C123.133 33.0667 124.133 32.5667 125.2 32.3C126.267 32.0334 127.367 31.9 128.5 31.9C129.633 31.9 130.667 31.9667 131.6 32.1C131.6 31.4334 131.533 30.8 131.4 30.2C131.267 29.6 131.033 29.1 130.7 28.7C130.433 28.3 130.1 27.9667 129.7 27.7C129.3 27.5 128.867 27.4 128.4 27.4C127.933 27.4 127.5 27.5 127.1 27.7C126.633 27.9 126.2 28.2 125.8 28.6C125.4 29.0667 125.033 29.6334 124.7 30.3L120.9 28.2C121.5 26.7334 122.233 25.6 123.1 24.8C123.967 23.9334 124.867 23.3334 125.8 23C126.8 22.6 127.733 22.4 128.6 22.4C130 22.4 131.2 22.7334 132.2 23.4C133.267 23.9334 134.1 24.7 134.7 25.7C135.367 26.6334 135.833 27.6334 136.1 28.7C136.433 29.7667 136.6 30.8 136.6 31.8C136.6 32.5334 136.5 33.2667 136.3 34C136.167 34.7334 136 35.4 135.8 36C135.6 36.5334 135.4 36.9667 135.2 37.3C133.933 36.9667 132.733 36.7334 131.6 36.6C130.467 36.4 129.433 36.3334 128.5 36.4C127.567 36.4667 126.767 36.6667 126.1 37C125.433 37.2667 124.933 37.7 124.6 38.3C124.2 38.9667 124 39.7667 124 40.7C124 41.5 124.1 42.4667 124.3 43.6C124.433 44.7334 124.6 45.9 124.8 47.1C125.067 48.2334 125.367 49.4 125.7 50.6ZM161.6 38.2C159.933 38.2 158.567 38.0667 157.5 37.8C156.5 37.5334 155.7 37.1667 155.1 36.7C154.433 36.1667 154 35.5 153.8 34.7C153.533 33.9 153.367 32.9334 153.3 31.8L152.6 12.4H157.5L158.2 29.5C158.267 30.5667 158.4 31.3667 158.6 31.9C158.733 32.4334 159.067 32.8 159.6 33C160.133 33.2 160.9 33.3 161.9 33.3C162.833 33.3 163.467 33.5334 163.8 34C164.2 34.4 164.4 34.9334 164.4 35.6C164.4 36.3334 164.167 36.9667 163.7 37.5C163.233 37.9667 162.533 38.2 161.6 38.2ZM142.8 38.2C142.133 38.2 141.467 38.1334 140.8 38C140.2 37.8667 139.767 37.8 139.5 37.8L140.2 32.7C141.8 32.9 143.367 32.9334 144.9 32.8C146.433 32.6667 147.8 32.3 149 31.7C150.267 31.1 151.233 30.2 151.9 29C152.633 27.8 153 26.2334 153 24.3L154.9 29.8C154.633 31.4 154.167 32.7334 153.5 33.8C152.833 34.8 152.033 35.6 151.1 36.2C150.233 36.8 149.3 37.2334 148.3 37.5C147.3 37.7667 146.333 37.9667 145.4 38.1C144.4 38.1667 143.533 38.2 142.8 38.2ZM153.7 30.1L150.4 33.4C150 32.7334 149.5 31.9334 148.9 31C148.233 30.0667 147.4 29.0334 146.4 27.9C145.467 26.7667 144.4 25.5667 143.2 24.3C142 23.0334 140.667 21.7 139.2 20.3L142.2 17C144.4 19.0667 146.167 20.8 147.5 22.2C148.9 23.6 149.967 24.7667 150.7 25.7C151.567 26.6334 152.2 27.4667 152.6 28.2C153.067 28.8667 153.433 29.5 153.7 30.1ZM161.6 38.2L162 33.3C162.733 33.3 163.367 33.2334 163.9 33.1C164.367 32.9667 164.767 32.6667 165.1 32.2C165.433 31.7334 165.7 31.0667 165.9 30.2C166.167 29.2667 166.433 28 166.7 26.4L171.3 27.2C171.233 27.7334 171.1 28.3667 170.9 29.1C170.767 29.9 170.7 30.5667 170.7 31.1C170.7 31.5667 170.767 31.9667 170.9 32.3C171.1 32.5667 171.433 32.8 171.9 33C172.3 33.2 172.9 33.3 173.7 33.3C174.3 33.3 174.8 33.2334 175.2 33.1C175.667 32.9667 176.033 32.6667 176.3 32.2C176.633 31.7334 176.933 31.0334 177.2 30.1C177.467 29.1 177.7 27.7667 177.9 26.1L182.5 26.9C182.433 27.4334 182.333 28 182.2 28.6C182.133 29.2 182.067 29.7667 182 30.3C181.933 30.7667 181.9 31.1667 181.9 31.5C181.9 31.8334 181.967 32.1334 182.1 32.4C182.3 32.6667 182.633 32.8667 183.1 33C183.633 33.2 184.333 33.3 185.2 33.3C186.2 33.3 186.967 33.0667 187.5 32.6C187.967 32.1334 188.2 31.4334 188.2 30.5C188.2 29.9667 188.2 29.4 188.2 28.8C188.2 28.1334 188.167 27.4334 188.1 26.7C188.033 25.9 187.933 25 187.8 24L192.3 23.6C192.433 25.6667 192.633 27.3 192.9 28.5C193.1 29.7667 193.367 30.7667 193.7 31.5C194.1 32.1667 194.6 32.6334 195.2 32.9C195.8 33.1667 196.6 33.3 197.6 33.3C198.467 33.3 199.1 33.5334 199.5 34C199.9 34.4 200.1 34.9334 200.1 35.6C200.1 36.3334 199.867 36.9667 199.4 37.5C198.933 37.9667 198.233 38.2 197.3 38.2C196.633 38.2 195.967 38.1334 195.3 38C194.633 37.8667 193.967 37.6667 193.3 37.4C192.7 37.0667 192.167 36.6 191.7 36C191.167 35.4 190.767 34.6 190.5 33.6L191.1 33.8C190.767 34.9334 190.333 35.8334 189.8 36.5C189.267 37.1 188.567 37.5334 187.7 37.8C186.9 38.0667 185.933 38.2 184.8 38.2C183.733 38.2 182.8 38.0334 182 37.7C181.2 37.4334 180.533 37 180 36.4C179.533 35.7334 179.3 34.8667 179.3 33.8H180.5C180.033 35.0667 179.5 36.0334 178.9 36.7C178.3 37.3 177.567 37.7 176.7 37.9C175.833 38.1 174.733 38.2 173.4 38.2C172.6 38.2 171.833 38.1 171.1 37.9C170.3 37.7 169.6 37.3 169 36.7C168.4 36.0334 167.967 35 167.7 33.6L169.6 33.5C169.067 34.9 168.433 35.9334 167.7 36.6C166.9 37.2667 166 37.7 165 37.9C164 38.1 162.867 38.2 161.6 38.2ZM197.3 38.2L197.6 33.3C198.733 33.3 199.533 33.1667 200 32.9C200.467 32.7 200.733 32.3 200.8 31.7C200.867 31.0334 200.9 30.1334 200.9 29L200.2 12.4H205.2L205.9 29.3C205.9 30.6334 205.833 31.8667 205.7 33C205.567 34.0667 205.2 35 204.6 35.8C204.067 36.5334 203.2 37.1 202 37.5C200.8 37.9667 199.233 38.2 197.3 38.2ZM215.4 38H210.5L209.8 12.4H214.7L215.4 38Z" fill="white"/>
</svg>
