<svg width="248" height="40" viewBox="0 0 248 40" fill="none" xmlns="http://www.w3.org/2000/svg">
<path d="M22.625 24.625H18.75L18.125 4.5H22L22.625 24.625ZM24.75 23.875C24.75 23.4583 24.7917 22.9583 24.875 22.375C24.9583 21.7917 25.0833 21.1667 25.25 20.5C25.5 19.75 25.8333 18.9167 26.25 18L29.625 19.125C29.375 19.7083 29.2083 20.25 29.125 20.75C28.9583 21.25 28.8333 21.6667 28.75 22C28.6667 22.4167 28.625 22.8333 28.625 23.25C28.625 24.1667 28.8333 24.9167 29.25 25.5C29.6667 26.0833 30.25 26.5417 31 26.875C31.75 27.125 32.625 27.25 33.625 27.25C34.9583 27.25 36 27.0417 36.75 26.625C37.5 26.2083 38.0417 25.625 38.375 24.875C38.7917 24.0417 39 23.125 39 22.125C39.1667 21.0417 39.2083 19.9167 39.125 18.75L38.625 4.5H42.5L43 18.5C43 19.75 42.9583 20.9583 42.875 22.125C42.7083 23.2917 42.4583 24.4167 42.125 25.5C41.7083 26.5833 41.1667 27.5417 40.5 28.375C39.75 29.125 38.7917 29.75 37.625 30.25C36.5417 30.75 35.1667 31 33.5 31C32.3333 31 31.2083 30.875 30.125 30.625C29.125 30.2917 28.2083 29.8333 27.375 29.25C26.5417 28.6667 25.9167 27.9583 25.5 27.125C25 26.2083 24.75 25.125 24.75 23.875ZM53.875 31C52.5417 31 51.3333 30.875 50.25 30.625C49.25 30.2917 48.3333 29.8333 47.5 29.25C46.75 28.5833 46.1667 27.8333 45.75 27C45.3333 26.0833 45.125 25.0417 45.125 23.875C45.125 23.4583 45.1667 22.9583 45.25 22.375C45.3333 21.7917 45.4583 21.1667 45.625 20.5C45.875 19.75 46.2083 18.9167 46.625 18L50 19.125C49.75 19.7083 49.5833 20.25 49.5 20.75C49.3333 21.25 49.2083 21.6667 49.125 22C49.0417 22.4167 49 22.8333 49 23.25C49 23.9167 49.1667 24.5417 49.5 25.125C49.8333 25.7917 50.375 26.2917 51.125 26.625C51.875 26.9583 52.8333 27.125 54 27.125C55.0833 27.125 56 27 56.75 26.75C57.5 26.5 58.0833 26.1667 58.5 25.75C58.9167 25.3333 59.2083 24.8333 59.375 24.25C59.5417 23.6667 59.625 23.0417 59.625 22.375C59.625 21.875 59.5833 21.3333 59.5 20.75C59.3333 20.0833 59.1667 19.375 59 18.625C58.75 17.875 58.5 17.0833 58.25 16.25L62.125 15.25C62.2917 15.9167 62.4167 16.5 62.5 17C62.6667 17.5 62.7917 17.9167 62.875 18.25C62.9583 18.5833 63.0417 18.8333 63.125 19C63.2917 19.5833 63.5 20 63.75 20.25C64 20.5 64.2917 20.6667 64.625 20.75C64.9583 20.9167 65.3333 21 65.75 21C66.0833 21 66.4167 20.9167 66.75 20.75C67.0833 20.6667 67.3333 20.4583 67.5 20.125C67.75 19.7083 68 19.125 68.25 18.375C68.4167 17.625 68.5833 16.5833 68.75 15.25L72.375 15.875C72.2917 16.2917 72.25 16.75 72.25 17.25C72.1667 17.75 72.0833 18.2083 72 18.625C71.9167 18.9583 71.875 19.2917 71.875 19.625C71.875 19.7917 71.9583 20 72.125 20.25C72.2917 20.4167 72.5417 20.5833 72.875 20.75C73.2083 20.8333 73.75 20.875 74.5 20.875C75 20.875 75.4167 20.8333 75.75 20.75C76.0833 20.6667 76.375 20.5 76.625 20.25C76.7917 19.9167 76.875 19.5 76.875 19C76.875 18.5 76.7917 17.9583 76.625 17.375C76.5417 16.7083 76.375 15.9583 76.125 15.125C75.875 14.375 75.625 13.5833 75.375 12.75L79.25 11.625C79.5 12.4583 79.75 13.2917 80 14.125C80.25 15.0417 80.4167 15.9167 80.5 16.75C80.6667 17.5833 80.75 18.3333 80.75 19C80.75 19.9167 80.5833 20.75 80.25 21.5C80 22.25 79.625 22.875 79.125 23.375C78.5417 23.7917 77.875 24.125 77.125 24.375C76.375 24.625 75.5 24.75 74.5 24.75C73.8333 24.75 73.2083 24.6667 72.625 24.5C72.0417 24.3333 71.5417 24.125 71.125 23.875C70.7083 23.5417 70.4167 23.1667 70.25 22.75C70 22.3333 69.875 21.8333 69.875 21.25H70.875C70.5417 22.3333 70.1667 23.0833 69.75 23.5C69.25 24 68.7083 24.3333 68.125 24.5C67.5417 24.6667 66.9167 24.75 66.25 24.75C65.8333 24.75 65.375 24.7083 64.875 24.625C64.4583 24.5417 64.0833 24.4167 63.75 24.25C63.4167 24 63.125 23.7083 62.875 23.375C62.5417 22.9583 62.3333 22.5 62.25 22L63.375 23.125C63.2917 24.375 63.0417 25.5 62.625 26.5C62.125 27.4167 61.4583 28.2083 60.625 28.875C59.7917 29.5417 58.8333 30.0833 57.75 30.5C56.5833 30.8333 55.2917 31 53.875 31ZM82.875 23.875C82.875 23.4583 82.9167 22.9583 83 22.375C83 21.7917 83.125 21.1667 83.375 20.5C83.5417 19.75 83.8333 18.9167 84.25 18L87.625 19.125C87.4583 19.7083 87.2917 20.25 87.125 20.75C86.9583 21.25 86.8333 21.6667 86.75 22C86.75 22.4167 86.75 22.8333 86.75 23.25C86.75 24.1667 86.9167 24.9167 87.25 25.5C87.6667 26.0833 88.25 26.5417 89 26.875C89.75 27.125 90.625 27.25 91.625 27.25C92.9583 27.25 94 27.0417 94.75 26.625C95.5833 26.2083 96.1667 25.625 96.5 24.875C96.8333 24.0417 97.0417 23.125 97.125 22.125C97.2083 21.0417 97.25 19.9167 97.25 18.75L96.625 4.5H100.5L101 18.5C101.083 19.75 101.042 20.9583 100.875 22.125C100.792 23.2917 100.542 24.4167 100.125 25.5C99.7917 26.5833 99.25 27.5417 98.5 28.375C97.8333 29.125 96.9167 29.75 95.75 30.25C94.5833 30.75 93.2083 31 91.625 31C90.375 31 89.25 30.875 88.25 30.625C87.1667 30.2917 86.2083 29.8333 85.375 29.25C84.625 28.6667 84 27.9583 83.5 27.125C83.0833 26.2083 82.875 25.125 82.875 23.875ZM108.5 24.625H104.75L104.125 4.5H108L108.5 24.625ZM115.5 34.5L111.875 35.375C111.542 34.125 111.25 32.9583 111 31.875C110.75 30.7083 110.583 29.7083 110.5 28.875C110.417 27.9583 110.375 27.2083 110.375 26.625C110.375 25.2917 110.583 24.2083 111 23.375C111.417 22.5417 112 21.8333 112.75 21.25C113.417 20.75 114.208 20.375 115.125 20.125C115.958 19.9583 116.792 19.875 117.625 19.875C118.542 19.875 119.375 19.9167 120.125 20C120.125 19.4167 120.083 18.9167 120 18.5C119.833 18 119.667 17.5833 119.5 17.25C119.25 17 118.958 16.75 118.625 16.5C118.292 16.3333 117.958 16.25 117.625 16.25C117.292 16.25 116.917 16.3333 116.5 16.5C116.167 16.6667 115.875 16.9167 115.625 17.25C115.292 17.5833 115 18 114.75 18.5L111.75 16.875C112.25 15.7917 112.833 14.9167 113.5 14.25C114.167 13.5833 114.875 13.125 115.625 12.875C116.375 12.5417 117.083 12.375 117.75 12.375C118.917 12.375 119.875 12.625 120.625 13.125C121.458 13.625 122.125 14.25 122.625 15C123.125 15.6667 123.458 16.4167 123.625 17.25C123.875 18.1667 124 19 124 19.75C124 20.3333 123.958 20.9167 123.875 21.5C123.708 22.0833 123.542 22.5833 123.375 23C123.292 23.5 123.167 23.875 123 24.125C122 23.875 121.042 23.6667 120.125 23.5C119.208 23.3333 118.375 23.2917 117.625 23.375C116.958 23.4583 116.375 23.625 115.875 23.875C115.292 24.0417 114.875 24.375 114.625 24.875C114.375 25.375 114.25 26 114.25 26.75C114.25 27.4167 114.292 28.1667 114.375 29C114.458 29.9167 114.625 30.8333 114.875 31.75C115.042 32.6667 115.25 33.5833 115.5 34.5ZM142.375 35.5C141.125 35.5 139.917 35.3333 138.75 35C137.583 34.75 136.542 34.2917 135.625 33.625C134.708 32.9583 133.958 32.1667 133.375 31.25C132.875 30.25 132.625 29.0417 132.625 27.625C132.625 26.125 132.917 24.75 133.5 23.5C134.083 22.25 134.917 21.125 136 20.125C137.167 19.125 138.5 18.3333 140 17.75C141.5 17.0833 143.167 16.625 145 16.375L145.875 20C144.208 20.25 142.792 20.625 141.625 21.125C140.458 21.625 139.5 22.1667 138.75 22.75C138 23.4167 137.417 24.125 137 24.875C136.667 25.625 136.5 26.4167 136.5 27.25C136.5 27.9167 136.583 28.5 136.75 29C137 29.4167 137.375 29.8333 137.875 30.25C138.292 30.5833 138.75 30.8333 139.25 31C139.75 31.25 140.292 31.4167 140.875 31.5C141.375 31.5833 141.875 31.625 142.375 31.625C143.625 31.625 144.792 31.5 145.875 31.25C146.958 31 147.917 30.7083 148.75 30.375L149.875 33.875C149.458 34.125 148.833 34.375 148 34.625C147.25 34.875 146.375 35.0833 145.375 35.25C144.375 35.4167 143.375 35.5 142.375 35.5ZM141 18.125L136.875 20.25C136.292 20 135.708 19.625 135.125 19.125C134.625 18.625 134.208 18.0417 133.875 17.375C133.542 16.625 133.375 15.7917 133.375 14.875C133.375 13.7083 133.667 12.7083 134.25 11.875C134.833 11.0417 135.667 10.4167 136.75 10C137.75 9.5 138.833 9.25 140 9.25C140.583 9.25 141.125 9.29167 141.625 9.375C142.125 9.45833 142.625 9.58333 143.125 9.75L142.625 13.375C142.208 13.2917 141.792 13.2083 141.375 13.125C140.958 13.125 140.625 13.125 140.375 13.125C139.708 13.125 139.125 13.2083 138.625 13.375C138.208 13.5417 137.875 13.7917 137.625 14.125C137.375 14.4583 137.25 14.875 137.25 15.375C137.25 15.7083 137.333 16.0417 137.5 16.375C137.75 16.7083 138.083 17 138.5 17.25C138.833 17.5 139.208 17.7083 139.625 17.875C140.125 18.0417 140.583 18.125 141 18.125ZM148.5 23.875C148.5 23.4583 148.542 22.9583 148.625 22.375C148.708 21.7917 148.875 21.1667 149.125 20.5C149.292 19.75 149.583 18.9167 150 18L153.375 19.125C153.125 19.7083 152.958 20.25 152.875 20.75C152.708 21.1667 152.583 21.5833 152.5 22C152.417 22.4167 152.375 22.8333 152.375 23.25C152.375 24.1667 152.583 24.9167 153 25.5C153.417 26.0833 154 26.5417 154.75 26.875C155.5 27.125 156.375 27.25 157.375 27.25C158.708 27.25 159.75 27.0417 160.5 26.625C161.25 26.2083 161.792 25.625 162.125 24.875C162.542 24.0417 162.792 23.125 162.875 22.125C162.958 21.0417 162.958 19.9167 162.875 18.75L162.375 4.5H166.25L166.75 18.5C166.75 19.6667 166.708 20.875 166.625 22.125C166.458 23.2917 166.208 24.4167 165.875 25.5C165.458 26.5833 164.917 27.5 164.25 28.25C163.5 29.0833 162.583 29.75 161.5 30.25C160.333 30.75 158.917 31 157.25 31C156.083 31 154.958 30.875 153.875 30.625C152.875 30.2917 151.958 29.8333 151.125 29.25C150.292 28.6667 149.667 27.9583 149.25 27.125C148.75 26.2083 148.5 25.125 148.5 23.875ZM168.875 23.875C168.875 23.4583 168.917 22.9583 169 22.375C169.083 21.7917 169.25 21.1667 169.5 20.5C169.667 19.75 169.958 18.9167 170.375 18L173.75 19.125C173.5 19.7083 173.333 20.25 173.25 20.75C173.083 21.1667 172.958 21.5833 172.875 22C172.792 22.4167 172.75 22.8333 172.75 23.25C172.75 23.75 172.875 24.25 173.125 24.75C173.375 25.25 173.75 25.6667 174.25 26C174.667 26.3333 175.25 26.625 176 26.875C176.667 27.0417 177.458 27.125 178.375 27.125C179.458 27.125 180.417 27.0417 181.25 26.875C182.083 26.625 182.75 26.375 183.25 26.125C183.833 25.7917 184.292 25.4583 184.625 25.125C184.875 24.7917 185 24.5 185 24.25C185 24 184.875 23.7917 184.625 23.625C184.292 23.4583 183.875 23.2917 183.375 23.125C182.875 22.9583 182.375 22.7917 181.875 22.625C181.292 22.375 180.75 22.0833 180.25 21.75C179.833 21.4167 179.458 21 179.125 20.5C178.792 20.0833 178.625 19.5 178.625 18.75C178.625 18.0833 178.833 17.3333 179.25 16.5C179.583 15.6667 180.083 14.875 180.75 14.125C181.5 13.375 182.333 12.75 183.25 12.25C184.167 11.75 185.208 11.5 186.375 11.5C187.208 11.5 187.917 11.625 188.5 11.875C189.25 12.125 189.833 12.4167 190.25 12.75L188.875 16C188.458 15.75 188.042 15.5417 187.625 15.375C187.125 15.2917 186.708 15.25 186.375 15.25C185.792 15.25 185.292 15.3333 184.875 15.5C184.375 15.6667 183.958 15.9167 183.625 16.25C183.292 16.5833 183 16.9167 182.75 17.25C182.583 17.6667 182.5 18.0417 182.5 18.375C182.5 18.7083 182.667 19 183 19.25C183.333 19.5 183.75 19.7083 184.25 19.875C184.75 20.125 185.292 20.3333 185.875 20.5C186.375 20.75 186.917 21 187.5 21.25C188 21.5833 188.417 21.9167 188.75 22.25C189 22.6667 189.125 23.1667 189.125 23.75C189.125 24.5 188.917 25.2917 188.5 26.125C188 26.9583 187.25 27.75 186.25 28.5C185.333 29.25 184.167 29.875 182.75 30.375C181.417 30.7917 179.833 31 178 31C176.667 31 175.458 30.8333 174.375 30.5C173.292 30.25 172.333 29.8333 171.5 29.25C170.667 28.5833 170.042 27.8333 169.625 27C169.125 26.0833 168.875 25.0417 168.875 23.875ZM180.5 37.375C180 37.375 179.542 37.1667 179.125 36.75C178.792 36.4167 178.625 36 178.625 35.5C178.625 34.9167 178.792 34.4583 179.125 34.125C179.542 33.7083 180 33.5 180.5 33.5C181 33.5 181.458 33.7083 181.875 34.125C182.208 34.4583 182.375 34.9167 182.375 35.5C182.375 36 182.208 36.4167 181.875 36.75C181.458 37.1667 181 37.375 180.5 37.375ZM175.75 37.375C175.25 37.375 174.792 37.1667 174.375 36.75C174.042 36.4167 173.875 36 173.875 35.5C173.875 34.9167 174.042 34.4583 174.375 34.125C174.792 33.7083 175.25 33.5 175.75 33.5C176.25 33.5 176.667 33.7083 177 34.125C177.417 34.4583 177.625 34.9167 177.625 35.5C177.625 36 177.417 36.4167 177 36.75C176.667 37.1667 176.25 37.375 175.75 37.375ZM202.5 25.25L203.125 21.375C204.875 21.375 206.292 21.3333 207.375 21.25C208.458 21.0833 209.25 20.8333 209.75 20.5C210.333 20.1667 210.708 19.7083 210.875 19.125C211.042 18.4583 211.125 17.625 211.125 16.625L210.5 4.5H214.375L215 16.875C215.083 18.5417 214.958 19.9167 214.625 21C214.292 22.0833 213.667 22.9167 212.75 23.5C211.833 24.0833 210.542 24.5417 208.875 24.875C207.208 25.125 205.083 25.25 202.5 25.25ZM201.125 18.625L200.375 16C201.042 15.8333 201.583 15.6667 202 15.5C202.417 15.4167 202.708 15.2917 202.875 15.125C203.125 15.0417 203.25 14.9167 203.25 14.75C203.25 14.5833 203.167 14.4167 203 14.25C202.833 14.0833 202.625 13.875 202.375 13.625C202.208 13.375 202.042 13.0833 201.875 12.75C201.708 12.5 201.625 12.1667 201.625 11.75C201.625 11.3333 201.75 10.9167 202 10.5C202.25 10.0833 202.667 9.66667 203.25 9.25C203.833 8.83333 204.583 8.45833 205.5 8.125L206.75 10.5C206 10.8333 205.458 11.125 205.125 11.375C204.875 11.625 204.75 11.8333 204.75 12C204.75 12.1667 204.833 12.375 205 12.625C205.167 12.7917 205.375 13.0417 205.625 13.375C205.792 13.625 205.958 13.9167 206.125 14.25C206.292 14.5 206.375 14.8333 206.375 15.25C206.375 15.5 206.333 15.7917 206.25 16.125C206.083 16.4583 205.833 16.75 205.5 17C205.167 17.3333 204.625 17.625 203.875 17.875C203.208 18.125 202.292 18.375 201.125 18.625ZM203.75 24.375L202.5 25.25C200.5 25.25 198.792 25.0833 197.375 24.75C196.042 24.4167 194.958 24 194.125 23.5C193.292 22.9167 192.667 22.25 192.25 21.5C191.833 20.75 191.625 19.9167 191.625 19C191.625 18.4167 191.667 17.8333 191.75 17.25C191.917 16.6667 192.042 16.0833 192.125 15.5C192.292 14.9167 192.458 14.4167 192.625 14L196 14.75C196 15.0833 195.958 15.4583 195.875 15.875C195.708 16.2083 195.625 16.5833 195.625 17C195.542 17.3333 195.5 17.625 195.5 17.875C195.5 18.5417 195.75 19.1667 196.25 19.75C196.75 20.25 197.542 20.6667 198.625 21C199.792 21.25 201.292 21.375 203.125 21.375L203.75 24.375ZM222 34.5L218.375 35.5C218.042 34.1667 217.75 32.9583 217.5 31.875C217.333 30.7917 217.167 29.7917 217 28.875C216.917 27.9583 216.875 27.2083 216.875 26.625C216.875 25.2917 217.083 24.2083 217.5 23.375C217.917 22.5417 218.5 21.875 219.25 21.375C220 20.7917 220.792 20.4167 221.625 20.25C222.458 20 223.333 19.875 224.25 19.875C225.083 19.875 225.875 19.9583 226.625 20.125C226.708 19.5417 226.667 19 226.5 18.5C226.417 18.0833 226.25 17.7083 226 17.375C225.75 17.0417 225.458 16.7917 225.125 16.625C224.792 16.375 224.458 16.25 224.125 16.25C223.792 16.25 223.458 16.375 223.125 16.625C222.792 16.7917 222.458 17.0417 222.125 17.375C221.792 17.625 221.5 18.0417 221.25 18.625L218.25 16.875C218.75 15.7917 219.333 14.9167 220 14.25C220.667 13.5833 221.375 13.125 222.125 12.875C222.875 12.625 223.625 12.5 224.375 12.5C225.458 12.5 226.375 12.7083 227.125 13.125C227.958 13.625 228.625 14.25 229.125 15C229.625 15.75 230 16.5417 230.25 17.375C230.5 18.2083 230.625 19 230.625 19.75C230.625 20.3333 230.542 20.9167 230.375 21.5C230.292 22.0833 230.167 22.5833 230 23C229.833 23.5 229.667 23.875 229.5 24.125C228.5 23.875 227.542 23.6667 226.625 23.5C225.792 23.4167 225 23.375 224.25 23.375C223.5 23.4583 222.875 23.625 222.375 23.875C221.875 24.125 221.458 24.4583 221.125 24.875C220.875 25.375 220.75 26 220.75 26.75C220.75 27.4167 220.792 28.2083 220.875 29.125C220.958 29.9583 221.125 30.8333 221.375 31.75C221.542 32.6667 221.75 33.5833 222 34.5Z" fill="white"/>
</svg>
