<svg width="184" height="92" viewBox="0 0 184 92" fill="none" xmlns="http://www.w3.org/2000/svg">
<path d="M11.0687 54.1938H6.61248L6.03748 31.05H10.4937L11.0687 54.1938ZM12.65 54.3375L12.9375 49.8813C13.8958 49.8813 14.6146 49.7855 15.0937 49.5938C15.4771 49.4021 15.7166 49.0188 15.8125 48.4438C15.9083 47.8688 15.9562 47.0542 15.9562 46L15.3812 31.05H19.8375L20.4125 46.2875C20.5083 47.5334 20.4604 48.6834 20.2687 49.7375C20.1729 50.6959 19.8375 51.5105 19.2625 52.1813C18.7833 52.8521 18.0166 53.3792 16.9625 53.7626C15.9083 54.1459 14.4708 54.3375 12.65 54.3375ZM22.1375 54.3375L22.425 49.8813C23.0958 49.8813 23.6708 49.8334 24.15 49.7375C24.5333 49.6417 24.8687 49.4021 25.1562 49.0188C25.4437 48.5396 25.6833 47.9167 25.875 47.15C26.1625 46.2875 26.45 45.1375 26.7375 43.7L30.7625 44.4188C30.6666 44.898 30.5708 45.473 30.475 46.1438C30.2833 46.9105 30.1875 47.5334 30.1875 48.0126C30.1875 48.3959 30.2833 48.7313 30.475 49.0188C30.6666 49.3063 30.9541 49.5459 31.3375 49.7375C31.7208 49.8334 32.2479 49.8813 32.9187 49.8813C33.4937 49.8813 33.9729 49.8334 34.3562 49.7375C34.7396 49.6417 35.075 49.4021 35.3625 49.0188C35.65 48.5396 35.8896 47.8688 36.0812 47.0063C36.3687 46.1438 36.6083 44.9459 36.8 43.4125L40.9687 44.1313C40.8729 44.6105 40.7771 45.1375 40.6812 45.7125C40.5854 46.2875 40.5375 46.7667 40.5375 47.15C40.4416 47.6292 40.3937 48.0125 40.3937 48.3C40.3937 48.5875 40.4416 48.875 40.5375 49.1625C40.7291 49.3542 41.0646 49.5459 41.5437 49.7375C41.9271 49.8334 42.5021 49.8813 43.2687 49.8813C44.2271 49.8813 44.9458 49.6896 45.425 49.3063C45.9041 48.923 46.1437 48.3 46.1437 47.4375C46.1437 46.9584 46.0958 46.4313 46 45.8563C46 45.2813 46 44.6584 46 43.9875C45.9041 43.2209 45.8083 42.4063 45.7125 41.5438L49.7375 41.2563C49.9291 43.0771 50.1208 44.5625 50.3125 45.7125C50.5041 46.8625 50.7437 47.725 51.0312 48.3C51.4146 48.875 51.8458 49.3063 52.325 49.5938C52.9 49.7855 53.6666 49.8813 54.625 49.8813C55.3916 49.8813 55.9666 50.1209 56.35 50.6C56.6375 50.9834 56.7812 51.4625 56.7812 52.0375C56.7812 52.7084 56.5896 53.2834 56.2062 53.7626C55.7271 54.1459 55.0562 54.3375 54.1937 54.3375C53.7146 54.3375 53.1396 54.2896 52.4687 54.1938C51.8937 54.098 51.3187 53.9063 50.7437 53.6188C50.1687 53.3313 49.6416 52.9001 49.1625 52.3251C48.7791 51.8459 48.4437 51.1271 48.1562 50.1688L48.7312 50.4563C48.4437 51.5105 48.0604 52.325 47.5812 52.9C47.0062 53.475 46.3833 53.8584 45.7125 54.05C44.9458 54.2417 44.0354 54.3375 42.9812 54.3375C42.0229 54.3375 41.2083 54.1938 40.5375 53.9063C39.7708 53.7146 39.1479 53.3313 38.6687 52.7563C38.2854 52.1813 38.0937 51.3667 38.0937 50.3125H39.1C38.7166 51.5584 38.2375 52.4688 37.6625 53.0438C37.0875 53.6188 36.4166 53.9542 35.65 54.05C34.8833 54.2417 33.925 54.3375 32.775 54.3375C32.0083 54.3375 31.2896 54.2896 30.6187 54.1938C29.9479 54.0021 29.325 53.6188 28.75 53.0438C28.175 52.4688 27.7916 51.5584 27.6 50.3125L29.1812 50.1688C28.7979 51.4146 28.2229 52.325 27.4562 52.9C26.7854 53.475 26.0187 53.8584 25.1562 54.05C24.1979 54.2417 23.1916 54.3375 22.1375 54.3375ZM75.7562 54.3375C74.3187 54.3375 73.1208 54.2417 72.1625 54.05C71.2041 53.8584 70.4375 53.523 69.8625 53.0438C69.2875 52.5646 68.9041 51.9417 68.7125 51.175C68.5208 50.5042 68.3771 49.6417 68.2812 48.5875L67.7062 31.05H72.0187L72.7375 46.5751C72.7375 47.5334 72.8333 48.2521 73.025 48.7313C73.2166 49.2105 73.5521 49.5459 74.0312 49.7375C74.5104 49.8334 75.1812 49.8813 76.0437 49.8813C76.9062 49.8813 77.4812 50.1209 77.7687 50.6C78.1521 50.9834 78.3437 51.4625 78.3437 52.0375C78.3437 52.7084 78.1041 53.2834 77.625 53.7626C77.2416 54.1459 76.6187 54.3375 75.7562 54.3375ZM58.7937 54.3375C58.2187 54.3375 57.6437 54.2896 57.0687 54.1938C56.4937 54.098 56.0625 54.05 55.775 54.05L56.4937 49.4501C57.9312 49.6417 59.3208 49.6896 60.6625 49.5938C62.1 49.4021 63.3458 49.0667 64.4 48.5875C65.55 48.0125 66.4604 47.15 67.1312 46C67.7062 44.9459 67.9937 43.5563 67.9937 41.8313L69.7187 46.8625C69.5271 48.3 69.0958 49.45 68.425 50.3125C67.85 51.2709 67.1791 52.0375 66.4125 52.6125C65.55 53.0917 64.6875 53.475 63.825 53.7626C62.8666 54.0501 61.9562 54.1938 61.0937 54.1938C60.2312 54.2896 59.4646 54.3375 58.7937 54.3375ZM68.7125 47.15L65.6937 50.025C65.3104 49.45 64.8312 48.7313 64.2562 47.8688C63.6812 47.0063 62.9625 46.0959 62.1 45.1375C61.2375 44.0834 60.2791 42.9813 59.225 41.8313C58.075 40.6813 56.8291 39.4834 55.4875 38.2375L58.3625 35.2188C60.2791 37.1355 61.8604 38.7167 63.1062 39.9625C64.3521 41.2084 65.3104 42.2625 65.9812 43.125C66.7479 43.9875 67.3229 44.7063 67.7062 45.2813C68.0896 45.9521 68.425 46.575 68.7125 47.15ZM82.225 65.55L78.0562 66.5563C77.6729 65.1188 77.3375 63.7771 77.05 62.5313C76.7625 61.1896 76.5708 60.0396 76.475 59.0813C76.3791 58.0271 76.3312 57.1646 76.3312 56.4938C76.3312 54.9605 76.5708 53.7146 77.05 52.7563C77.5291 51.798 78.2 50.9834 79.0625 50.3125C79.925 49.7375 80.8354 49.3063 81.7937 49.0188C82.7521 48.8271 83.7583 48.7313 84.8125 48.7313C85.7708 48.7313 86.6812 48.7792 87.5437 48.875C87.5437 48.2042 87.4958 47.6292 87.4 47.15C87.2083 46.575 87.0166 46.1438 86.825 45.8563C86.5375 45.473 86.2021 45.1375 85.8187 44.85C85.4354 44.6584 85.0521 44.5625 84.6687 44.5625C84.2854 44.5625 83.9021 44.6584 83.5187 44.85C83.0396 45.0417 82.6562 45.3292 82.3687 45.7125C81.9854 46.0959 81.65 46.575 81.3625 47.15L77.9125 45.2813C78.4875 44.0355 79.1583 43.0292 79.925 42.2625C80.6916 41.4959 81.5062 40.9688 82.3687 40.6813C83.2312 40.298 84.0458 40.1063 84.8125 40.1063C86.1541 40.1063 87.2562 40.3938 88.1187 40.9688C89.0771 41.5438 89.8437 42.2625 90.4187 43.125C90.9937 43.8917 91.425 44.8021 91.7125 45.8563C91.9041 46.8146 92 47.725 92 48.5875C92 49.2584 91.9521 49.9292 91.8562 50.6C91.7604 51.2709 91.6166 51.8459 91.425 52.3251C91.2333 52.9001 91.0416 53.3313 90.85 53.6188C89.7 53.3313 88.5979 53.0917 87.5437 52.9C86.4896 52.7084 85.5791 52.6605 84.8125 52.7563C83.95 52.8521 83.2312 53.0438 82.6562 53.3313C81.9854 53.6188 81.5062 54.0021 81.2187 54.4813C80.9312 55.0563 80.7875 55.7751 80.7875 56.6376C80.7875 57.4042 80.8354 58.2667 80.9312 59.225C81.0271 60.2792 81.2187 61.3334 81.5062 62.3876C81.6979 63.4417 81.9375 64.4959 82.225 65.55ZM101.344 54.3375L101.631 49.8813C102.685 49.8813 103.452 49.8813 103.931 49.8813C104.506 49.8813 104.937 49.8813 105.225 49.8813C105.512 49.7855 105.752 49.7375 105.944 49.7375C105.752 49.5459 105.465 49.2584 105.081 48.875C104.698 48.3959 104.41 47.8688 104.219 47.2938C103.931 46.623 103.787 45.8563 103.787 44.9938C103.787 43.748 104.123 42.598 104.794 41.5438C105.465 40.5855 106.375 39.8667 107.525 39.3875C108.675 38.8125 109.921 38.525 111.262 38.525C111.933 38.525 112.556 38.573 113.131 38.6688C113.706 38.7646 114.329 38.8605 115 38.9563L114.281 43.2688C113.802 43.173 113.371 43.0771 112.987 42.9813C112.508 42.8855 112.077 42.8375 111.694 42.8375C111.023 42.8375 110.4 42.9813 109.825 43.2688C109.346 43.4605 108.962 43.748 108.675 44.1313C108.387 44.5146 108.244 44.9938 108.244 45.5688C108.244 45.8563 108.292 46.1917 108.387 46.5751C108.579 46.8626 108.771 47.15 108.962 47.4375C109.154 47.6292 109.394 47.8209 109.681 48.0126C109.969 48.2042 110.208 48.3959 110.4 48.5875C110.687 48.6834 110.879 48.7313 110.975 48.7313C111.55 48.6355 112.029 48.5396 112.412 48.4438C112.796 48.2521 113.179 48.1084 113.562 48.0126C113.946 47.9167 114.329 47.773 114.712 47.5813C115.192 47.3896 115.767 47.15 116.437 46.8625L117.875 51.0313C116.054 51.8938 114.329 52.5646 112.7 53.0438C110.975 53.523 109.202 53.8584 107.381 54.05C105.56 54.2417 103.548 54.3375 101.344 54.3375ZM119.025 54.3375L119.312 49.8813C120.271 49.8813 120.99 49.7855 121.469 49.5938C121.852 49.4021 122.092 49.0188 122.187 48.4438C122.283 47.8688 122.283 47.0542 122.187 46L121.756 31.05H126.212L126.787 46C126.787 47.0542 126.883 47.8688 127.075 48.4438C127.362 49.0188 127.746 49.4021 128.225 49.5938C128.704 49.7855 129.375 49.8813 130.237 49.8813C131.004 49.8813 131.579 50.1209 131.962 50.6C132.25 50.9834 132.394 51.4625 132.394 52.0375C132.394 52.7084 132.154 53.2834 131.675 53.7626C131.292 54.1459 130.669 54.3375 129.806 54.3375C128.944 54.3375 128.081 54.2417 127.219 54.05C126.452 53.8584 125.829 53.475 125.35 52.9C124.775 52.2292 124.392 51.3667 124.2 50.3125H125.637C125.254 51.3667 124.775 52.2292 124.2 52.9C123.625 53.475 122.906 53.8584 122.044 54.05C121.277 54.2417 120.271 54.3375 119.025 54.3375ZM129.806 54.3375L130.237 49.8813C131.004 49.8813 131.627 49.8334 132.106 49.7375C132.681 49.5459 133.16 49.2584 133.544 48.875C133.927 48.3959 134.262 47.725 134.55 46.8625C134.742 45.9042 134.981 44.7063 135.269 43.2688L139.294 43.9875C139.294 44.275 139.246 44.6105 139.15 44.9938C139.15 45.473 139.102 45.9042 139.006 46.2875C138.91 46.7667 138.862 47.198 138.862 47.5813C138.862 47.9646 138.958 48.3 139.15 48.5875C139.246 48.875 139.485 49.1146 139.869 49.3063C140.156 49.498 140.587 49.6417 141.162 49.7375C141.737 49.8334 142.408 49.8813 143.175 49.8813C143.942 49.8813 144.517 50.1209 144.9 50.6C145.187 50.9834 145.331 51.4625 145.331 52.0375C145.331 52.7084 145.092 53.2834 144.612 53.7626C144.229 54.1459 143.606 54.3375 142.744 54.3375C141.881 54.3375 141.019 54.2896 140.156 54.1938C139.485 54.0021 138.862 53.7625 138.287 53.475C137.712 53.0917 137.233 52.6125 136.85 52.0375C136.562 51.4625 136.371 50.7438 136.275 49.8813H137.712C137.329 50.8396 136.85 51.6542 136.275 52.3251C135.7 52.9001 135.077 53.3313 134.406 53.6188C133.64 53.9063 132.873 54.098 132.106 54.1938C131.34 54.2896 130.573 54.3375 129.806 54.3375ZM138.719 61.6688C138.048 61.6688 137.521 61.4771 137.137 61.0938C136.658 60.6146 136.419 60.0876 136.419 59.5126C136.419 58.9375 136.658 58.4105 137.137 57.9313C137.521 57.4521 138.048 57.2125 138.719 57.2125C139.294 57.2125 139.773 57.4521 140.156 57.9313C140.635 58.4105 140.875 58.9375 140.875 59.5126C140.875 60.0876 140.635 60.6146 140.156 61.0938C139.773 61.4771 139.294 61.6688 138.719 61.6688ZM133.256 61.6688C132.585 61.6688 132.058 61.4771 131.675 61.0938C131.196 60.6146 130.956 60.0876 130.956 59.5126C130.956 58.9375 131.196 58.4105 131.675 57.9313C132.058 57.4521 132.585 57.2125 133.256 57.2125C133.831 57.2125 134.31 57.4521 134.694 57.9313C135.173 58.4105 135.412 58.9375 135.412 59.5126C135.412 60.0876 135.173 60.6146 134.694 61.0938C134.31 61.4771 133.831 61.6688 133.256 61.6688ZM147.2 54.3375H142.744L143.175 49.8813H147.487C148.254 49.8813 148.829 49.8334 149.212 49.7375C149.596 49.7375 149.883 49.6417 150.075 49.4501C150.171 49.2584 150.219 49.0188 150.219 48.7313C150.219 48.348 150.075 47.9167 149.787 47.4375C149.5 46.9584 149.069 46.4313 148.494 45.8563C148.015 45.2813 147.487 44.7542 146.912 44.275C146.337 43.7 145.762 43.173 145.187 42.6938C144.708 42.1188 144.325 41.6875 144.037 41.4C143.654 41.0167 143.462 40.7292 143.462 40.5375C143.462 39.9625 143.51 39.4834 143.606 39.1C143.702 38.8125 143.798 38.525 143.894 38.2375C143.99 38.0459 144.133 37.9021 144.325 37.8063C144.612 37.423 145.14 36.9917 145.906 36.5125C146.577 36.0334 147.392 35.5542 148.35 35.075C149.404 34.5959 150.554 34.0688 151.8 33.4938C152.95 32.9188 154.244 32.2959 155.681 31.625L157.406 35.5063C156.065 36.0813 154.819 36.6563 153.669 37.2313C152.615 37.7105 151.656 38.1896 150.794 38.6688C149.931 39.0521 149.165 39.4355 148.494 39.8188C147.823 40.2021 147.248 40.5375 146.769 40.825L147.056 38.525C147.919 39.2917 148.733 40.0584 149.5 40.825C150.267 41.4959 150.937 42.1667 151.512 42.8375C152.183 43.5084 152.806 44.2271 153.381 44.9938C153.956 45.7605 154.483 46.575 154.962 47.4375C155.442 48.1084 155.921 48.6355 156.4 49.0188C156.879 49.4021 157.358 49.6417 157.837 49.7375C158.317 49.8334 158.748 49.8813 159.131 49.8813C159.994 49.8813 160.569 50.1209 160.856 50.6C161.24 50.9834 161.431 51.4625 161.431 52.0375C161.431 52.7084 161.192 53.2834 160.712 53.7626C160.329 54.1459 159.706 54.3375 158.844 54.3375C158.173 54.3375 157.406 54.2417 156.544 54.05C155.777 53.7625 155.058 53.3313 154.387 52.7563C153.717 52.2771 153.19 51.5584 152.806 50.6L154.531 50.7438C154.148 51.4146 153.765 51.9896 153.381 52.4688C152.902 52.948 152.375 53.3313 151.8 53.6188C151.225 53.8105 150.554 54.0021 149.787 54.1938C149.021 54.2896 148.158 54.3375 147.2 54.3375ZM165.744 65.4063L161.431 66.5563C160.952 64.8313 160.569 63.2021 160.281 61.6688C159.994 60.1355 159.754 58.7459 159.562 57.5C159.467 56.2542 159.419 55.2 159.419 54.3375C159.419 52.5167 159.706 50.8396 160.281 49.3063C160.856 47.8688 161.623 46.623 162.581 45.5688C163.54 44.5146 164.594 43.6042 165.744 42.8375C166.798 42.1667 167.852 41.6875 168.906 41.4C169.96 41.0167 170.871 40.825 171.637 40.825C172.404 40.825 173.027 41.0167 173.506 41.4C173.985 41.8792 174.417 42.4542 174.8 43.125C175.183 43.8917 175.615 44.8021 176.094 45.8563C176.573 47.0063 177.004 47.8688 177.387 48.4438C177.771 49.0188 178.202 49.4021 178.681 49.5938C179.065 49.7855 179.496 49.8813 179.975 49.8813C180.837 49.8813 181.46 50.1209 181.844 50.6C182.131 50.9834 182.275 51.4625 182.275 52.0375C182.275 52.7084 182.083 53.2834 181.7 53.7626C181.221 54.1459 180.55 54.3375 179.687 54.3375C178.633 54.3375 177.771 54.1938 177.1 53.9063C176.333 53.523 175.615 52.9959 174.944 52.3251L175.806 51.3188C175.615 51.9896 175.375 52.6125 175.087 53.1875C174.8 53.6667 174.369 54.05 173.794 54.3375C173.219 54.625 172.548 54.7688 171.781 54.7688C171.11 54.7688 170.392 54.673 169.625 54.4813C168.954 54.2896 168.283 53.9542 167.612 53.475C166.942 53.0917 166.319 52.5646 165.744 51.8938C165.073 51.3188 164.45 50.6 163.875 49.7375L165.169 49.5938C164.69 50.2646 164.354 51.0313 164.162 51.8938C163.875 52.8521 163.731 53.7625 163.731 54.625C163.731 55.2959 163.779 56.0625 163.875 56.925C164.067 57.7875 164.258 58.7459 164.45 59.8C164.642 60.7584 164.833 61.7646 165.025 62.8188C165.312 63.7771 165.552 64.6396 165.744 65.4063ZM171.781 50.3125C172.165 50.3125 172.452 50.2646 172.644 50.1688C172.931 50.073 173.075 49.8813 173.075 49.5938C173.171 49.4021 173.171 49.1146 173.075 48.7313C172.883 48.1563 172.692 47.6771 172.5 47.2938C172.308 46.9105 172.117 46.575 171.925 46.2875C171.733 46 171.542 45.7605 171.35 45.5688C171.158 45.3771 170.967 45.2813 170.775 45.2813C170.487 45.2813 170.152 45.3771 169.769 45.5688C169.385 45.7605 169.002 46 168.619 46.2875C168.235 46.4792 167.9 46.7188 167.612 47.0063C167.325 47.2938 167.133 47.4855 167.037 47.5813L166.75 46.5751C167.133 47.2459 167.565 47.8688 168.044 48.4438C168.619 49.0188 169.242 49.498 169.912 49.8813C170.487 50.1688 171.11 50.3125 171.781 50.3125Z" fill="white"/>
</svg>
