<svg width="248" height="64" viewBox="0 0 248 64" fill="none" xmlns="http://www.w3.org/2000/svg">
<path d="M12.7 44.8L8.69998 45.8C8.36664 44.4 8.06664 43.1 7.79998 41.9C7.53331 40.7 7.33331 39.6 7.19998 38.6C7.13331 37.6667 7.09998 36.8333 7.09998 36.1C7.09998 34.7 7.33331 33.5333 7.79998 32.6C8.26664 31.6667 8.86664 30.9333 9.59998 30.4C10.4 29.8 11.3 29.3667 12.3 29.1C13.2333 28.8333 14.1666 28.7 15.1 28.7C16.0333 28.7 16.9 28.8 17.7 29C17.7666 28.3333 17.7333 27.7667 17.6 27.3C17.4666 26.7667 17.2666 26.3333 17 26C16.8 25.6667 16.5 25.4 16.1 25.2C15.7666 25 15.4 24.9 15 24.9C14.6 24.9 14.2333 25 13.9 25.2C13.5 25.3333 13.1333 25.6 12.8 26C12.4666 26.3333 12.1333 26.8 11.8 27.4L8.59998 25.6C9.13331 24.3333 9.76664 23.3667 10.5 22.7C11.2333 21.9667 12 21.4333 12.8 21.1C13.6 20.8333 14.4 20.7 15.2 20.7C16.4 20.7 17.4333 20.9333 18.3 21.4C19.1666 21.9333 19.8666 22.6 20.4 23.4C21 24.2 21.4 25.0667 21.6 26C21.8666 26.9333 22 27.8 22 28.6C22 29.2667 21.9333 29.9333 21.8 30.6C21.6666 31.2 21.5333 31.7667 21.4 32.3C21.2 32.7667 21.0333 33.1333 20.9 33.4C19.7666 33.1333 18.7333 32.9333 17.8 32.8C16.8 32.6667 15.9 32.6 15.1 32.6C14.3 32.6667 13.6 32.8333 13 33.1C12.4666 33.3667 12.0333 33.7667 11.7 34.3C11.4333 34.8333 11.3 35.5 11.3 36.3C11.3 37.0333 11.3666 37.8667 11.5 38.8C11.5666 39.8 11.7333 40.8 12 41.8C12.2 42.8 12.4333 43.8 12.7 44.8ZM35.8 34.6L36.6 30.4C38.5333 30.4667 40.0666 30.4333 41.2 30.3C42.4 30.1667 43.3 29.9 43.9 29.5C44.5 29.1 44.9 28.5667 45.1 27.9C45.3 27.2333 45.3666 26.3667 45.3 25.3L44.6 12H48.8L49.5 25.5C49.6333 27.3 49.5 28.8 49.1 30C48.7666 31.2 48.1 32.1333 47.1 32.8C46.1 33.4667 44.6666 33.9333 42.8 34.2C41 34.4667 38.6666 34.6 35.8 34.6ZM34.4 27.5L33.6 24.5C34.3333 24.3667 34.9 24.2 35.3 24C35.7666 23.8667 36.1 23.7333 36.3 23.6C36.5666 23.4667 36.7 23.3333 36.7 23.2C36.7 23 36.6 22.8 36.4 22.6C36.2 22.4 36 22.1667 35.8 21.9C35.6 21.7 35.4 21.4333 35.2 21.1C35 20.7667 34.9 20.4 34.9 20C34.9 19.4667 35.0333 18.9667 35.3 18.5C35.6333 18.1 36.1 17.6667 36.7 17.2C37.3666 16.8 38.2 16.3667 39.2 15.9L40.5 18.6C39.7 18.9333 39.1333 19.2333 38.8 19.5C38.5333 19.7667 38.4 20 38.4 20.2C38.4 20.4 38.5 20.6 38.7 20.8C38.8333 21.0667 39.0333 21.3333 39.3 21.6C39.5 21.9333 39.7 22.2667 39.9 22.6C40.1 22.9333 40.2 23.3 40.2 23.7C40.2 24.0333 40.1 24.3667 39.9 24.7C39.8333 25.0333 39.6 25.3667 39.2 25.7C38.8 26.0333 38.2333 26.3333 37.5 26.6C36.7 26.9333 35.6666 27.2333 34.4 27.5ZM37.2 33.7L35.8 34.6C33.6666 34.6 31.8333 34.4667 30.3 34.2C28.8333 33.8 27.6333 33.3 26.7 32.7C25.7666 32.1 25.1 31.4 24.7 30.6C24.2333 29.7333 24 28.8333 24 27.9C24 27.2333 24.0666 26.5667 24.2 25.9C24.3333 25.3 24.4666 24.6667 24.6 24C24.8 23.4 24.9666 22.8333 25.1 22.3L28.9 23.2C28.7666 23.5333 28.6666 23.9333 28.6 24.4C28.4666 24.8 28.3666 25.2 28.3 25.6C28.3 26 28.3 26.3667 28.3 26.7C28.3 27.4333 28.5333 28.0667 29 28.6C29.5333 29.2 30.4333 29.6667 31.7 30C32.9 30.2667 34.5333 30.4 36.6 30.4L37.2 33.7ZM51.9 33.2C51.9 32.7333 51.9333 32.2 52 31.6C52.0666 31 52.2 30.3 52.4 29.5C52.6666 28.7 53 27.8 53.4 26.8L57.1 28.1C56.9 28.7 56.7 29.2667 56.5 29.8C56.3666 30.3333 56.2666 30.8 56.2 31.2C56.1333 31.6667 56.1 32.1 56.1 32.5C56.1 33.1 56.2333 33.6667 56.5 34.2C56.7 34.7333 57.0666 35.2 57.6 35.6C58.1333 35.9333 58.7666 36.2333 59.5 36.5C60.3 36.7 61.2333 36.8 62.3 36.8C63.4333 36.8 64.4333 36.7 65.3 36.5C66.2333 36.3 67 36.0333 67.6 35.7C68.2 35.3667 68.6666 35 69 34.6C69.3333 34.2667 69.5 33.9333 69.5 33.6C69.5 33.4 69.3333 33.2 69 33C68.6666 32.8 68.2333 32.6333 67.7 32.5C67.1666 32.3 66.6 32.0667 66 31.8C65.4 31.5333 64.8333 31.2333 64.3 30.9C63.7666 30.5667 63.3333 30.1333 63 29.6C62.6666 29.0667 62.5 28.4333 62.5 27.7C62.5 26.9 62.7 26.0667 63.1 25.2C63.5 24.2667 64.0666 23.4 64.8 22.6C65.6 21.7333 66.5 21.0333 67.5 20.5C68.5 19.9667 69.6333 19.7 70.9 19.7C71.7666 19.7 72.5667 19.8333 73.3 20.1C74.0333 20.4333 74.6666 20.7667 75.2 21.1L73.6 24.6C73.2 24.3333 72.7666 24.1333 72.3 24C71.7666 23.8 71.3 23.7 70.9 23.7C70.3 23.7 69.7666 23.8333 69.3 24.1C68.7666 24.3 68.3 24.5667 67.9 24.9C67.5 25.3 67.2 25.7 67 26.1C66.8 26.5 66.7 26.8667 66.7 27.2C66.7 27.5333 66.8666 27.8667 67.2 28.2C67.5333 28.4667 68 28.7 68.6 28.9C69.1333 29.1 69.7 29.3333 70.3 29.6C70.9666 29.8667 71.5666 30.1333 72.1 30.4C72.7 30.7333 73.1666 31.1 73.5 31.5C73.8333 31.9 74 32.4 74 33C74 33.8667 73.7333 34.7667 73.2 35.7C72.6666 36.6333 71.9 37.5 70.9 38.3C69.8333 39.1 68.5333 39.7667 67 40.3C65.4666 40.7667 63.7333 41 61.8 41C60.3333 41 59 40.8333 57.8 40.5C56.6 40.1667 55.5333 39.6667 54.6 39C53.7333 38.4 53.0666 37.6 52.6 36.6C52.1333 35.6 51.9 34.4667 51.9 33.2ZM64.5 48C63.9 48 63.4 47.8 63 47.4C62.6 46.9333 62.4 46.4333 62.4 45.9C62.4 45.3 62.6 44.8 63 44.4C63.4 44 63.9 43.8 64.5 43.8C65.1 43.8 65.6 44 66 44.4C66.4 44.8 66.6 45.3 66.6 45.9C66.6 46.4333 66.4 46.9333 66 47.4C65.6 47.8 65.1 48 64.5 48ZM59.3 48C58.7 48 58.2 47.8 57.8 47.4C57.4 46.9333 57.2 46.4333 57.2 45.9C57.2 45.3 57.4 44.8 57.8 44.4C58.2 44 58.7 43.8 59.3 43.8C59.8333 43.8 60.3333 44 60.8 44.4C61.2 44.8 61.4 45.3 61.4 45.9C61.4 46.4333 61.2 46.9333 60.8 47.4C60.3333 47.8 59.8333 48 59.3 48ZM76.5 33.2C76.5 32.7333 76.5666 32.2 76.7 31.6C76.7666 31 76.9 30.3 77.1 29.5C77.3 28.7 77.6333 27.8 78.1 26.8L81.8 28.1C81.6 28.7 81.4 29.2667 81.2 29.8C81.0666 30.3333 80.9666 30.8 80.9 31.2C80.7666 31.6667 80.7 32.1 80.7 32.5C80.7 33.5 80.9333 34.3333 81.4 35C81.8666 35.6667 82.5 36.1667 83.3 36.5C84.1666 36.8333 85.1333 37 86.2 37C87.6 37 88.7333 36.7333 89.6 36.2C90.4666 35.7333 91.0666 35.1 91.4 34.3C91.8 33.4333 92.0333 32.4333 92.1 31.3C92.2333 30.1667 92.2666 28.9667 92.2 27.7L91.7 12H95.9L96.4 27.4C96.4666 28.6667 96.4333 29.9667 96.3 31.3C96.1666 32.5667 95.8666 33.8 95.4 35C95 36.1333 94.4333 37.1667 93.7 38.1C92.9 38.9667 91.8666 39.6667 90.6 40.2C89.4 40.7333 87.9 41 86.1 41C84.7666 41 83.5333 40.8333 82.4 40.5C81.2666 40.2333 80.2666 39.8 79.4 39.2C78.4666 38.5333 77.7666 37.7 77.3 36.7C76.7666 35.7667 76.5 34.6 76.5 33.2ZM109.2 45.9C107.867 45.9 106.567 45.7333 105.3 45.4C104.033 45.0667 102.867 44.5667 101.8 43.9C100.8 43.2333 100 42.3333 99.4 41.2C98.8 40.1333 98.5 38.8333 98.5 37.3C98.5 35.7 98.8333 34.2 99.5 32.8C100.167 31.4 101.1 30.2 102.3 29.2C103.5 28.1333 104.933 27.2333 106.6 26.5C108.267 25.7667 110.067 25.2667 112 25L113 28.9C111.267 29.2333 109.733 29.6667 108.4 30.2C107.133 30.7333 106.067 31.3333 105.2 32C104.333 32.7333 103.7 33.5 103.3 34.3C102.9 35.1 102.7 35.9667 102.7 36.9C102.7 37.6333 102.833 38.2667 103.1 38.8C103.367 39.3333 103.733 39.8 104.2 40.2C104.667 40.5333 105.2 40.8333 105.8 41.1C106.333 41.3 106.9 41.4333 107.5 41.5C108.1 41.6333 108.667 41.7 109.2 41.7C110.6 41.7 111.9 41.5667 113.1 41.3C114.3 41.0333 115.333 40.7 116.2 40.3L117.4 44.2C116.933 44.4667 116.267 44.7333 115.4 45C114.533 45.2667 113.567 45.4667 112.5 45.6C111.433 45.8 110.333 45.9 109.2 45.9ZM107.6 26.9L103.2 29.2C102.533 28.9333 101.9 28.5333 101.3 28C100.7 27.5333 100.233 26.9 99.9 26.1C99.5666 25.3 99.4 24.4 99.4 23.4C99.4 22.1333 99.7 21.0667 100.3 20.2C100.967 19.2667 101.867 18.5333 103 18C104.067 17.5333 105.267 17.3 106.6 17.3C107.267 17.3 107.867 17.3333 108.4 17.4C108.933 17.4667 109.5 17.6 110.1 17.8L109.4 21.8C109 21.6667 108.567 21.5667 108.1 21.5C107.7 21.4333 107.333 21.4 107 21.4C106.267 21.4 105.633 21.5 105.1 21.7C104.633 21.9 104.233 22.2 103.9 22.6C103.7 22.9333 103.6 23.3667 103.6 23.9C103.6 24.3 103.7 24.6667 103.9 25C104.167 25.4 104.5 25.7333 104.9 26C105.3 26.2667 105.733 26.5 106.2 26.7C106.733 26.8333 107.2 26.9 107.6 26.9ZM129.1 44.9L125.1 45.9C124.7 44.5 124.4 43.2 124.2 42C123.933 40.7333 123.733 39.6333 123.6 38.7C123.467 37.7 123.4 36.8667 123.4 36.2C123.4 34.8 123.633 33.6333 124.1 32.7C124.567 31.7667 125.2 31 126 30.4C126.8 29.8 127.667 29.4 128.6 29.2C129.533 28.9333 130.5 28.8 131.5 28.8C132.433 28.8 133.3 28.8667 134.1 29C134.167 28.4 134.133 27.8333 134 27.3C133.867 26.8333 133.667 26.4333 133.4 26.1C133.133 25.7 132.833 25.4 132.5 25.2C132.167 25 131.8 24.9 131.4 24.9C131 24.9 130.6 25 130.2 25.2C129.867 25.4 129.5 25.6667 129.1 26C128.833 26.4 128.533 26.8667 128.2 27.4L124.9 25.6C125.433 24.4 126.1 23.4333 126.9 22.7C127.633 21.9667 128.4 21.4667 129.2 21.2C130 20.8667 130.8 20.7 131.6 20.7C132.8 20.7 133.833 20.9667 134.7 21.5C135.567 21.9667 136.267 22.6333 136.8 23.5C137.333 24.3 137.733 25.1667 138 26.1C138.267 26.9667 138.4 27.8333 138.4 28.7C138.4 29.3667 138.333 30 138.2 30.6C138.067 31.2667 137.9 31.8333 137.7 32.3C137.567 32.8333 137.433 33.2333 137.3 33.5C136.167 33.1667 135.1 32.9333 134.1 32.8C133.167 32.6667 132.3 32.6333 131.5 32.7C130.7 32.7667 130 32.9333 129.4 33.2C128.867 33.4667 128.433 33.8667 128.1 34.4C127.767 34.8667 127.6 35.5 127.6 36.3C127.6 37.1 127.667 37.9667 127.8 38.9C127.933 39.8333 128.1 40.8 128.3 41.8C128.567 42.8667 128.833 43.9 129.1 44.9ZM146.1 34.1H141.9L141.2 12H145.4L146.1 34.1ZM148.5 33.3C148.5 32.8333 148.533 32.3 148.6 31.7C148.733 31.1 148.9 30.4 149.1 29.6C149.3 28.8 149.633 27.9 150.1 26.9L153.8 28.2C153.533 28.8 153.333 29.3667 153.2 29.9C153.067 30.4333 152.933 30.9 152.8 31.3C152.733 31.7667 152.7 32.2 152.7 32.6C152.7 33.6 152.933 34.4333 153.4 35.1C153.867 35.7667 154.5 36.2667 155.3 36.6C156.1 36.9333 157.067 37.1 158.2 37.1C159.6 37.1 160.733 36.8333 161.6 36.3C162.4 35.8333 163 35.2 163.4 34.4C163.8 33.5333 164.033 32.5333 164.1 31.4C164.233 30.2667 164.267 29.0333 164.2 27.7L163.6 12.1H167.9L168.4 27.5C168.4 28.7667 168.333 30.0667 168.2 31.4C168.133 32.6667 167.867 33.9 167.4 35.1C167 36.2333 166.4 37.2667 165.6 38.2C164.867 39.0667 163.867 39.7667 162.6 40.3C161.4 40.8333 159.9 41.1 158.1 41.1C156.767 41.1 155.533 40.9333 154.4 40.6C153.267 40.3333 152.233 39.9 151.3 39.3C150.433 38.6333 149.767 37.8 149.3 36.8C148.767 35.8667 148.5 34.7 148.5 33.3ZM180.3 41.1C178.9 41.1 177.6 40.9333 176.4 40.6C175.267 40.2667 174.267 39.7667 173.4 39.1C172.533 38.4333 171.867 37.6333 171.4 36.7C171 35.7 170.8 34.5667 170.8 33.3C170.8 32.8333 170.833 32.3 170.9 31.7C170.967 31.1 171.133 30.4 171.4 29.6C171.6 28.8 171.9 27.9 172.3 26.9L176 28.2C175.8 28.8 175.633 29.3667 175.5 29.9C175.3 30.4333 175.167 30.9 175.1 31.3C175.033 31.7667 175 32.2 175 32.6C175 33.4 175.167 34.1 175.5 34.7C175.9 35.3667 176.5 35.9 177.3 36.3C178.1 36.7 179.133 36.9 180.4 36.9C181.6 36.9 182.6 36.7667 183.4 36.5C184.2 36.2333 184.833 35.8667 185.3 35.4C185.767 34.9333 186.1 34.4 186.3 33.8C186.5 33.1333 186.6 32.4333 186.6 31.7C186.6 31.1667 186.533 30.5333 186.4 29.8C186.267 29.1333 186.1 28.4 185.9 27.6C185.633 26.7333 185.367 25.8333 185.1 24.9L189.3 23.8C189.5 24.6 189.667 25.2667 189.8 25.8C189.933 26.3333 190.033 26.7667 190.1 27.1C190.233 27.5 190.333 27.8 190.4 28C190.6 28.6 190.833 29.0667 191.1 29.4C191.367 29.6667 191.7 29.8667 192.1 30C192.433 30.0667 192.833 30.1 193.3 30.1C193.7 30.1 194.067 30.0333 194.4 29.9C194.733 29.8333 195.033 29.6 195.3 29.2C195.567 28.8 195.8 28.2 196 27.4C196.2 26.5333 196.4 25.4 196.6 24L200.6 24.6C200.533 25.0667 200.433 25.5667 200.3 26.1C200.233 26.5667 200.167 27.0333 200.1 27.5C200.033 27.9667 200 28.3333 200 28.6C200 28.8667 200.067 29.1 200.2 29.3C200.4 29.5667 200.7 29.7667 201.1 29.9C201.5 30.0333 202.067 30.1 202.8 30.1C203.333 30.1 203.8 30.0333 204.2 29.9C204.6 29.8333 204.9 29.6333 205.1 29.3C205.367 28.9667 205.5 28.5333 205.5 28C205.5 27.4667 205.4 26.8667 205.2 26.2C205.067 25.4667 204.867 24.6667 204.6 23.8C204.333 22.9333 204.067 22.0667 203.8 21.2L208 20C208.333 20.8667 208.6 21.7667 208.8 22.7C209.067 23.7 209.267 24.6667 209.4 25.6C209.6 26.4667 209.7 27.2333 209.7 27.9C209.7 28.9667 209.533 29.9 209.2 30.7C208.933 31.5 208.5 32.1667 207.9 32.7C207.3 33.2333 206.567 33.6333 205.7 33.9C204.9 34.1667 203.967 34.3 202.9 34.3C202.167 34.3 201.467 34.2333 200.8 34.1C200.2 33.9 199.667 33.6333 199.2 33.3C198.733 32.9667 198.367 32.5667 198.1 32.1C197.9 31.6333 197.8 31.1 197.8 30.5H198.8C198.533 31.6333 198.133 32.4667 197.6 33C197.067 33.5333 196.5 33.9 195.9 34.1C195.233 34.2333 194.567 34.3 193.9 34.3C193.367 34.3 192.867 34.2333 192.4 34.1C191.933 34.0333 191.5 33.9 191.1 33.7C190.7 33.4333 190.367 33.1 190.1 32.7C189.833 32.3 189.633 31.8333 189.5 31.3L190.6 32.5C190.6 33.8333 190.333 35.0333 189.8 36.1C189.333 37.1667 188.633 38.0667 187.7 38.8C186.833 39.5333 185.767 40.1333 184.5 40.6C183.233 40.9333 181.833 41.1 180.3 41.1ZM212 33.3C212 32.8333 212.033 32.3 212.1 31.7C212.167 31.1 212.3 30.4 212.5 29.6C212.767 28.8 213.1 27.9 213.5 26.9L217.2 28.2C217 28.8 216.833 29.3667 216.7 29.9C216.5 30.4333 216.367 30.9 216.3 31.3C216.233 31.7667 216.2 32.2 216.2 32.6C216.2 33.6 216.4 34.4333 216.8 35.1C217.267 35.7667 217.933 36.2667 218.8 36.6C219.6 36.9333 220.533 37.1 221.6 37.1C223.067 37.1 224.2 36.8333 225 36.3C225.867 35.8333 226.5 35.2 226.9 34.4C227.3 33.5333 227.533 32.5333 227.6 31.4C227.667 30.2667 227.7 29.0333 227.7 27.7L227.1 12.1H231.3L231.8 27.5C231.867 28.7667 231.833 30.0667 231.7 31.4C231.567 32.6667 231.3 33.9 230.9 35.1C230.5 36.2333 229.9 37.2667 229.1 38.2C228.3 39.0667 227.3 39.7667 226.1 40.3C224.833 40.8333 223.3 41.1 221.5 41.1C220.233 41.1 219 40.9333 217.8 40.6C216.667 40.3333 215.667 39.9 214.8 39.3C213.933 38.6333 213.233 37.8 212.7 36.8C212.233 35.8667 212 34.7 212 33.3ZM240.1 34.1H235.9L235.2 12.1H239.4L240.1 34.1Z" fill="white"/>
</svg>
