<svg width="240" height="128" viewBox="0 0 240 128" fill="none" xmlns="http://www.w3.org/2000/svg">
<g clip-path="url(#clip0_24_17)">
<mask id="mask0_24_17" style="mask-type:luminance" maskUnits="userSpaceOnUse" x="-3" y="-76" width="247" height="279">
<path d="M-3 -76H244V203H-3V-76Z" fill="white"/>
</mask>
<g mask="url(#mask0_24_17)">
<path d="M37.1 26.6H44.4C47.4 26.6 49.6 27.2667 51 28.6C52.4 30 53.1 31.9333 53.1 34.4C53.1 35.9333 52.8 37.3333 52.2 38.6C51.6 39.8667 50.6333 40.8667 49.3 41.6C47.9666 42.3333 46.2333 42.7 44.1 42.7H42.2V51.6H37.1V26.6ZM44.1 30.8H42.2V38.5H43.6C44.9333 38.5 46 38.2 46.8 37.6C47.5333 36.9333 47.9 35.9 47.9 34.5C47.9 32.0333 46.6333 30.8 44.1 30.8ZM64.2 32.1C66.6666 32.1 68.6 32.8667 70 34.4C71.4 35.9333 72.1 38.0667 72.1 40.8V43.3H60.9C60.9666 44.8333 61.3666 46.0333 62.1 46.9C62.8333 47.7 63.9 48.1 65.3 48.1C66.3666 48.1 67.3333 48 68.2 47.8C69.1333 47.5333 70.0666 47.1667 71 46.7V50.6C70.1333 51.0667 69.2333 51.4 68.3 51.6C67.3 51.8 66.1666 51.9 64.9 51.9C62.1 51.9 59.9 51.1 58.3 49.5C56.7 47.8333 55.9 45.4 55.9 42.2C55.9 38.8667 56.6333 36.3667 58.1 34.7C59.5666 32.9667 61.6 32.1 64.2 32.1ZM64.2 35.8C63.2666 35.8 62.5333 36.1333 62 36.8C61.4 37.4667 61.0666 38.5 61 39.9H67.4C67.4 38.7 67.1333 37.7333 66.6 37C66.0666 36.2 65.2666 35.8 64.2 35.8ZM83.3 32.1C85.5666 32.1 87.3 32.6667 88.5 33.8C89.7666 34.9333 90.4 36.6333 90.4 38.9V51.6H86.9L85.9 49H85.8C85.1333 50 84.3666 50.7333 83.5 51.2C82.6333 51.6667 81.5 51.9 80.1 51.9C78.4333 51.9 77.1 51.3667 76.1 50.3C75.1666 49.2333 74.7 47.7667 74.7 45.9C74.7 43.9 75.3333 42.4 76.6 41.4C77.9333 40.4 79.8666 39.8667 82.4 39.8L85.5 39.7V38.9C85.5 36.9 84.6 35.9 82.8 35.9C82 35.9 81.2 36.0333 80.4 36.3C79.6 36.5 78.7666 36.8 77.9 37.2L76.4 33.8C77.3333 33.2667 78.4 32.8667 79.6 32.6C80.7333 32.2667 81.9666 32.1 83.3 32.1ZM85.5 44.3V42.7L83.7 42.8C82.2333 42.8667 81.2333 43.1667 80.7 43.7C80.1 44.2333 79.8 44.9667 79.8 45.9C79.8 46.7 80 47.2667 80.4 47.6C80.8 48 81.3333 48.2 82 48.2C83 48.2 83.8 47.8667 84.4 47.2C85.1333 46.5333 85.5 45.5667 85.5 44.3ZM102.5 51.9C99.8333 51.9 97.7666 51.1333 96.3 49.6C94.9 48 94.2 45.5 94.2 42.1C94.2 38.8333 94.9666 36.3667 96.5 34.7C98.0333 32.9667 100.133 32.1 102.8 32.1C104 32.1 105.033 32.2333 105.9 32.5C106.833 32.7 107.633 33 108.3 33.4L106.9 37.3C106.167 36.9667 105.467 36.7 104.8 36.5C104.2 36.3 103.6 36.2 103 36.2C100.533 36.2 99.3 38.1667 99.3 42.1C99.3 44.0333 99.6 45.4667 100.2 46.4C100.867 47.3333 101.8 47.8 103 47.8C103.933 47.8 104.767 47.6667 105.5 47.4C106.3 47.1333 107.067 46.7667 107.8 46.3V50.5C107.067 51.0333 106.267 51.4 105.4 51.6C104.6 51.8 103.633 51.9 102.5 51.9ZM119 32.1C121.467 32.1 123.4 32.8667 124.8 34.4C126.2 35.9333 126.9 38.0667 126.9 40.8V43.3H115.7C115.767 44.8333 116.167 46.0333 116.9 46.9C117.633 47.7 118.7 48.1 120.1 48.1C121.167 48.1 122.133 48 123 47.8C123.933 47.5333 124.9 47.1667 125.9 46.7V50.6C125.033 51.0667 124.1 51.4 123.1 51.6C122.167 51.8 121.033 51.9 119.7 51.9C116.9 51.9 114.7 51.1 113.1 49.5C111.567 47.8333 110.8 45.4 110.8 42.2C110.8 38.8667 111.533 36.3667 113 34.7C114.467 32.9667 116.467 32.1 119 32.1ZM119.1 35.8C118.167 35.8 117.4 36.1333 116.8 36.8C116.2 37.4667 115.867 38.5 115.8 39.9H122.2C122.2 38.7 121.933 37.7333 121.4 37C120.933 36.2 120.167 35.8 119.1 35.8ZM138.8 25H143.7V31.4C143.7 31.9333 143.7 32.5333 143.7 33.2C143.633 33.8667 143.6 34.4667 143.6 35H143.7C144.233 34.1333 144.9 33.4333 145.7 32.9C146.5 32.3667 147.5 32.1 148.7 32.1C150.7 32.1 152.3 32.9667 153.5 34.7C154.7 36.3667 155.3 38.8 155.3 42C155.3 45.2 154.7 47.6667 153.5 49.4C152.233 51.0667 150.6 51.9 148.6 51.9C147.4 51.9 146.433 51.7 145.7 51.3C144.967 50.8333 144.3 50.2333 143.7 49.5H143.4L142.6 51.6H138.8V25ZM147.1 36.2C145.833 36.2 144.967 36.6333 144.5 37.5C144.033 38.4333 143.767 39.7333 143.7 41.4V42.1C143.7 44.0333 143.967 45.4667 144.5 46.4C144.967 47.3333 145.833 47.8 147.1 47.8C148.1 47.8 148.867 47.3333 149.4 46.4C149.933 45.4 150.2 43.9 150.2 41.9C150.2 40.0333 149.933 38.6 149.4 37.6C148.867 36.6667 148.1 36.2 147.1 36.2ZM166.5 32.1C168.967 32.1 170.9 32.8667 172.3 34.4C173.7 35.9333 174.4 38.0667 174.4 40.8V43.3H163.2C163.267 44.8333 163.667 46.0333 164.4 46.9C165.133 47.7 166.2 48.1 167.6 48.1C168.667 48.1 169.633 48 170.5 47.8C171.433 47.5333 172.367 47.1667 173.3 46.7V50.6C172.433 51.0667 171.533 51.4 170.6 51.6C169.6 51.8 168.467 51.9 167.2 51.9C164.4 51.9 162.2 51.1 160.6 49.5C159 47.8333 158.2 45.4 158.2 42.2C158.2 38.8667 158.933 36.3667 160.4 34.7C161.867 32.9667 163.9 32.1 166.5 32.1ZM166.5 35.8C165.633 35.8 164.9 36.1333 164.3 36.8C163.7 37.4667 163.367 38.5 163.3 39.9H169.7C169.7 38.7 169.433 37.7333 168.9 37C168.367 36.2 167.567 35.8 166.5 35.8ZM67.8 74.5H72.8V93.6H69L68.3 91.1H68C67.4666 92.1 66.7333 92.8333 65.8 93.3C64.8666 93.7 63.8666 93.9 62.8 93.9C60.8666 93.9 59.3666 93.3333 58.3 92.2C57.1666 91 56.6 89.2333 56.6 86.9V74.5H61.6V85.6C61.6 87 61.8 88.0667 62.2 88.8C62.6 89.4667 63.2666 89.8 64.2 89.8C65.6666 89.8 66.6333 89.2667 67.1 88.2C67.5666 87.2 67.8 85.7 67.8 83.7V74.5ZM87.6 74.2C89.6666 74.2 91.2666 75.0333 92.4 76.7C93.6666 78.3667 94.3 80.8333 94.3 84.1C94.3 87.3 93.6666 89.7333 92.4 91.4C91.2 93.1333 89.6 94 87.6 94C86.4 94 85.4 93.7333 84.6 93.2C83.8 92.7333 83.1666 92.1333 82.7 91.4H82.4C82.5333 91.9333 82.6 92.4667 82.6 93C82.6666 93.4667 82.7 93.9 82.7 94.3V102H77.7V74.5H81.7L82.4 77H82.7C83.2333 76.1333 83.8666 75.4333 84.6 74.9C85.4 74.4333 86.4 74.2 87.6 74.2ZM86 78.2C84.8 78.2 83.9333 78.6333 83.4 79.5C82.9333 80.3667 82.7 81.7 82.7 83.5V84.2C82.7 86.0667 82.9333 87.4667 83.4 88.4C83.9333 89.3333 84.8333 89.8 86.1 89.8C88.1666 89.8 89.2 87.8667 89.2 84C89.2 80.1333 88.1333 78.2 86 78.2ZM114.2 84C114.2 86 113.867 87.7667 113.2 89.3C112.6 90.7667 111.633 91.9333 110.3 92.8C109.033 93.6 107.467 94 105.6 94C103.867 94 102.367 93.6 101.1 92.8C99.8333 91.9333 98.8666 90.7667 98.2 89.3C97.5333 87.7667 97.2 86 97.2 84C97.2 80.9333 97.9333 78.5333 99.4 76.8C100.867 75.0667 102.967 74.2 105.7 74.2C107.367 74.2 108.867 74.5667 110.2 75.3C111.467 76.0333 112.433 77.1333 113.1 78.6C113.833 80.1333 114.2 81.9333 114.2 84ZM102.2 84C102.2 85.9333 102.467 87.4 103 88.4C103.6 89.4 104.5 89.9 105.7 89.9C106.9 89.9 107.767 89.4 108.3 88.4C108.833 87.4 109.1 85.9333 109.1 84C109.1 82.0667 108.833 80.6333 108.3 79.7C107.767 78.7 106.9 78.2 105.7 78.2C104.5 78.2 103.6 78.7 103 79.7C102.467 80.6333 102.2 82.0667 102.2 84ZM128.1 74.2C130.033 74.2 131.533 74.7667 132.6 75.9C133.733 77.0333 134.3 78.7667 134.3 81.1V93.6H129.3V82.4C129.3 81.0667 129.1 80.0333 128.7 79.3C128.3 78.6333 127.633 78.3 126.7 78.3C125.3 78.3 124.367 78.8 123.9 79.8C123.367 80.8667 123.1 82.4667 123.1 84.6V93.6H118.1V74.5H122L122.6 77H122.9C123.433 76 124.167 75.3 125.1 74.9C126.033 74.4333 127.033 74.2 128.1 74.2ZM151.6 93.5L144.8 74.5H150.1L153.2 84.7C153.533 85.8333 153.767 87 153.9 88.2H154C154.067 87.6 154.167 87.0333 154.3 86.5C154.433 85.9 154.567 85.3 154.7 84.7L157.7 74.5H163L155.8 95.9C155.067 98.0333 154.1 99.6 152.9 100.6C151.633 101.533 150.133 102 148.4 102C147.933 102 147.467 102 147 102C146.6 101.933 146.267 101.833 146 101.7V97.7C146.2 97.7 146.467 97.7333 146.8 97.8C147.133 97.8667 147.467 97.9 147.8 97.9C148.733 97.9 149.467 97.6 150 97C150.533 96.4 150.967 95.5667 151.3 94.5L151.6 93.5ZM181.5 84.1C181.5 86.1 181.2 87.8333 180.6 89.3C179.933 90.7667 178.967 91.9333 177.7 92.8C176.433 93.6 174.867 94 173 94C171.267 94 169.733 93.6 168.4 92.8C167.2 91.9333 166.233 90.7667 165.5 89.3C164.833 87.8333 164.5 86.1 164.5 84.1C164.5 80.9667 165.233 78.5333 166.7 76.8C168.167 75.0667 170.3 74.2 173.1 74.2C174.767 74.2 176.233 74.5667 177.5 75.3C178.767 76.1 179.767 77.2333 180.5 78.7C181.167 80.1667 181.5 81.9667 181.5 84.1ZM169.5 84.1C169.5 86.0333 169.8 87.5 170.4 88.5C170.933 89.4333 171.8 89.9 173 89.9C174.267 89.9 175.167 89.4333 175.7 88.5C176.233 87.5 176.5 86.0333 176.5 84.1C176.5 82.1 176.233 80.6333 175.7 79.7C175.167 78.7 174.267 78.2 173 78.2C171.8 78.2 170.9 78.7 170.3 79.7C169.767 80.6333 169.5 82.1 169.5 84.1ZM196.6 74.5H201.6V93.6H197.7L197.1 91.2H196.8C196.267 92.1333 195.533 92.8333 194.6 93.3C193.667 93.7667 192.633 94 191.5 94C189.633 94 188.133 93.4 187 92.2C185.933 91.0667 185.4 89.3333 185.4 87V74.5H190.4V85.7C190.4 87.1 190.6 88.1333 191 88.8C191.4 89.5333 192.033 89.9 192.9 89.9C194.367 89.9 195.367 89.3667 195.9 88.3C196.367 87.2333 196.6 85.7333 196.6 83.8V74.5Z" fill="white"/>
</g>
</g>
<defs>
<clipPath id="clip0_24_17">
<rect width="240" height="128" fill="white"/>
</clipPath>
</defs>
</svg>
