<svg width="972" height="540" viewBox="0 0 972 540" fill="none" xmlns="http://www.w3.org/2000/svg">
<g filter="url(#filter0_d_124_2)">
<rect width="960" height="528" rx="16" fill="#414344"/>
</g>
<path d="M0 152C0 143.163 7.16344 136 16 136H320V528H16C7.16345 528 0 520.837 0 512V152Z" fill="#6B6C6D"/>
<path d="M640 136H944C952.837 136 960 143.163 960 152V512C960 520.837 952.837 528 944 528H640V136Z" fill="#6B6C6D"/>
<path d="M320 136H640V142H320V136Z" fill="#6B6C6D"/>
<path d="M320 264H640V270H320V264Z" fill="#6B6C6D"/>
<path d="M320 392H640V398H320V392Z" fill="#6B6C6D"/>
<path d="M115.357 66.912C114.861 66.912 114.413 67.048 114.013 67.32C113.629 67.576 113.301 67.952 113.029 68.448C112.773 68.928 112.573 69.512 112.429 70.2C112.301 70.872 112.237 71.632 112.237 72.48C112.237 73.664 112.357 74.664 112.597 75.48C112.853 76.28 113.229 76.888 113.725 77.304C114.221 77.72 114.837 77.928 115.573 77.928C116.213 77.928 116.821 77.84 117.397 77.664C117.989 77.472 118.589 77.232 119.197 76.944V80.328C118.557 80.632 117.893 80.856 117.205 81C116.517 81.16 115.789 81.24 115.021 81.24C113.421 81.24 112.109 80.888 111.085 80.184C110.061 79.464 109.293 78.448 108.781 77.136C108.285 75.824 108.037 74.264 108.037 72.456C108.037 71.16 108.189 69.976 108.493 68.904C108.813 67.832 109.277 66.904 109.885 66.12C110.509 65.32 111.261 64.704 112.141 64.272C113.037 63.84 114.061 63.624 115.213 63.624C115.965 63.624 116.749 63.728 117.565 63.936C118.397 64.128 119.149 64.416 119.821 64.8L118.621 67.968C118.093 67.664 117.565 67.416 117.037 67.224C116.509 67.016 115.949 66.912 115.357 66.912ZM132.984 74.376C132.984 75.4 132.856 76.336 132.6 77.184C132.36 78.016 131.992 78.736 131.496 79.344C131.016 79.952 130.408 80.424 129.672 80.76C128.952 81.08 128.112 81.24 127.152 81.24C126.256 81.24 125.448 81.08 124.728 80.76C124.008 80.424 123.4 79.96 122.904 79.368C122.408 78.76 122.024 78.032 121.752 77.184C121.496 76.336 121.368 75.4 121.368 74.376C121.368 72.968 121.592 71.76 122.04 70.752C122.488 69.744 123.144 68.968 124.008 68.424C124.872 67.864 125.944 67.584 127.224 67.584C128.36 67.584 129.36 67.848 130.224 68.376C131.088 68.904 131.76 69.672 132.24 70.68C132.736 71.688 132.984 72.92 132.984 74.376ZM125.448 74.4C125.448 75.216 125.504 75.912 125.616 76.488C125.744 77.048 125.936 77.472 126.192 77.76C126.448 78.048 126.784 78.192 127.2 78.192C127.616 78.192 127.944 78.048 128.184 77.76C128.44 77.472 128.624 77.048 128.736 76.488C128.848 75.912 128.904 75.208 128.904 74.376C128.904 73.544 128.848 72.848 128.736 72.288C128.624 71.728 128.44 71.312 128.184 71.04C127.928 70.768 127.592 70.632 127.176 70.632C126.552 70.632 126.104 70.944 125.832 71.568C125.576 72.192 125.448 73.136 125.448 74.4ZM142.263 67.584C142.471 67.584 142.687 67.592 142.911 67.608C143.135 67.624 143.319 67.656 143.463 67.704L143.127 71.472C142.967 71.44 142.783 71.408 142.575 71.376C142.383 71.344 142.119 71.328 141.783 71.328C141.479 71.328 141.175 71.384 140.871 71.496C140.583 71.608 140.319 71.784 140.079 72.024C139.839 72.248 139.647 72.552 139.503 72.936C139.359 73.32 139.287 73.8 139.287 74.376V81H135.279V67.824H138.303L138.903 69.96H139.095C139.303 69.544 139.567 69.152 139.887 68.784C140.207 68.416 140.567 68.128 140.967 67.92C141.383 67.696 141.815 67.584 142.263 67.584ZM152.083 67.584C152.291 67.584 152.507 67.592 152.731 67.608C152.955 67.624 153.139 67.656 153.283 67.704L152.947 71.472C152.787 71.44 152.603 71.408 152.395 71.376C152.203 71.344 151.939 71.328 151.603 71.328C151.299 71.328 150.995 71.384 150.691 71.496C150.403 71.608 150.139 71.784 149.899 72.024C149.659 72.248 149.467 72.552 149.323 72.936C149.179 73.32 149.107 73.8 149.107 74.376V81H145.099V67.824H148.123L148.723 69.96H148.915C149.123 69.544 149.387 69.152 149.707 68.784C150.027 68.416 150.387 68.128 150.787 67.92C151.203 67.696 151.635 67.584 152.083 67.584ZM159.704 67.584C160.856 67.584 161.832 67.816 162.632 68.28C163.448 68.744 164.072 69.424 164.504 70.32C164.936 71.2 165.152 72.288 165.152 73.584V75.456H158.048C158.08 76.384 158.304 77.104 158.72 77.616C159.136 78.112 159.768 78.36 160.616 78.36C161.32 78.36 161.968 78.28 162.56 78.12C163.152 77.96 163.776 77.704 164.432 77.352V80.28C163.856 80.616 163.224 80.856 162.536 81C161.864 81.16 161.048 81.24 160.088 81.24C158.856 81.24 157.784 80.992 156.872 80.496C155.976 80 155.28 79.248 154.784 78.24C154.288 77.232 154.04 75.984 154.04 74.496C154.04 72.96 154.272 71.68 154.736 70.656C155.2 69.632 155.856 68.864 156.704 68.352C157.552 67.84 158.552 67.584 159.704 67.584ZM159.824 70.344C159.344 70.344 158.944 70.552 158.624 70.968C158.32 71.368 158.144 72.008 158.096 72.888H161.504C161.504 72.376 161.44 71.936 161.312 71.568C161.184 71.184 160.992 70.888 160.736 70.68C160.496 70.456 160.192 70.344 159.824 70.344ZM172.668 81.24C171.452 81.24 170.412 81 169.548 80.52C168.684 80.04 168.02 79.304 167.556 78.312C167.108 77.304 166.884 76.024 166.884 74.472C166.884 72.968 167.124 71.712 167.604 70.704C168.1 69.68 168.796 68.904 169.692 68.376C170.604 67.848 171.676 67.584 172.908 67.584C173.628 67.584 174.308 67.672 174.948 67.848C175.604 68.008 176.188 68.232 176.7 68.52L175.596 71.4C175.212 71.176 174.836 71.008 174.468 70.896C174.116 70.768 173.748 70.704 173.364 70.704C172.868 70.704 172.436 70.848 172.068 71.136C171.716 71.408 171.444 71.824 171.252 72.384C171.06 72.928 170.964 73.616 170.964 74.448C170.964 75.28 171.06 75.968 171.252 76.512C171.444 77.04 171.724 77.44 172.092 77.712C172.46 77.968 172.884 78.096 173.364 78.096C173.876 78.096 174.388 78 174.9 77.808C175.412 77.616 175.892 77.344 176.34 76.992V80.184C175.86 80.536 175.316 80.8 174.708 80.976C174.1 81.152 173.42 81.24 172.668 81.24ZM184.278 78.096C184.598 78.096 184.902 78.056 185.19 77.976C185.494 77.896 185.814 77.8 186.15 77.688V80.568C185.702 80.76 185.23 80.92 184.734 81.048C184.254 81.176 183.662 81.24 182.958 81.24C182.158 81.24 181.47 81.104 180.894 80.832C180.334 80.544 179.902 80.08 179.598 79.44C179.294 78.784 179.142 77.912 179.142 76.824V70.776H177.702V69.048L179.502 67.872L180.51 65.088H183.15V67.824H185.982V70.776H183.15V76.68C183.15 77.16 183.246 77.52 183.438 77.76C183.63 77.984 183.91 78.096 184.278 78.096ZM457.92 63.864L454.224 81H449.424L447.936 73.128C447.904 72.904 447.856 72.624 447.792 72.288C447.744 71.936 447.688 71.56 447.624 71.16C447.56 70.744 447.504 70.336 447.456 69.936C447.408 69.52 447.368 69.152 447.336 68.832C447.304 69.12 447.256 69.464 447.192 69.864C447.144 70.264 447.088 70.672 447.024 71.088C446.976 71.488 446.92 71.872 446.856 72.24C446.792 72.592 446.736 72.888 446.688 73.128L445.2 81H440.424L436.704 63.864H440.664L442.32 72.6C442.368 72.872 442.424 73.2 442.488 73.584C442.552 73.968 442.616 74.368 442.68 74.784C442.76 75.2 442.824 75.616 442.872 76.032C442.92 76.432 442.968 76.8 443.016 77.136C443.064 76.784 443.112 76.408 443.16 76.008C443.224 75.608 443.288 75.216 443.352 74.832C443.416 74.432 443.48 74.056 443.544 73.704C443.608 73.336 443.672 73.016 443.736 72.744L445.512 63.864H449.16L450.864 72.696C450.928 72.968 450.992 73.288 451.056 73.656C451.12 74.024 451.184 74.408 451.248 74.808C451.312 75.208 451.368 75.608 451.416 76.008C451.48 76.408 451.536 76.784 451.584 77.136C451.632 76.688 451.696 76.192 451.776 75.648C451.872 75.088 451.968 74.536 452.064 73.992C452.16 73.432 452.248 72.952 452.328 72.552L453.936 63.864H457.92ZM466.333 67.584C466.541 67.584 466.757 67.592 466.981 67.608C467.205 67.624 467.389 67.656 467.533 67.704L467.197 71.472C467.037 71.44 466.853 71.408 466.645 71.376C466.453 71.344 466.189 71.328 465.853 71.328C465.549 71.328 465.245 71.384 464.941 71.496C464.653 71.608 464.389 71.784 464.149 72.024C463.909 72.248 463.717 72.552 463.573 72.936C463.429 73.32 463.357 73.8 463.357 74.376V81H459.349V67.824H462.373L462.973 69.96H463.165C463.373 69.544 463.637 69.152 463.957 68.784C464.277 68.416 464.637 68.128 465.037 67.92C465.453 67.696 465.885 67.584 466.333 67.584ZM479.906 74.376C479.906 75.4 479.778 76.336 479.522 77.184C479.282 78.016 478.914 78.736 478.418 79.344C477.938 79.952 477.33 80.424 476.594 80.76C475.874 81.08 475.034 81.24 474.074 81.24C473.178 81.24 472.37 81.08 471.65 80.76C470.93 80.424 470.322 79.96 469.826 79.368C469.33 78.76 468.946 78.032 468.674 77.184C468.418 76.336 468.29 75.4 468.29 74.376C468.29 72.968 468.514 71.76 468.962 70.752C469.41 69.744 470.066 68.968 470.93 68.424C471.794 67.864 472.866 67.584 474.146 67.584C475.282 67.584 476.282 67.848 477.146 68.376C478.01 68.904 478.682 69.672 479.162 70.68C479.658 71.688 479.906 72.92 479.906 74.376ZM472.37 74.4C472.37 75.216 472.426 75.912 472.538 76.488C472.666 77.048 472.858 77.472 473.114 77.76C473.37 78.048 473.706 78.192 474.122 78.192C474.538 78.192 474.866 78.048 475.106 77.76C475.362 77.472 475.546 77.048 475.658 76.488C475.77 75.912 475.826 75.208 475.826 74.376C475.826 73.544 475.77 72.848 475.658 72.288C475.546 71.728 475.362 71.312 475.106 71.04C474.85 70.768 474.514 70.632 474.098 70.632C473.474 70.632 473.026 70.944 472.754 71.568C472.498 72.192 472.37 73.136 472.37 74.4ZM489.401 67.584C490.633 67.584 491.617 67.976 492.353 68.76C493.089 69.544 493.457 70.752 493.457 72.384V81H489.449V73.488C489.449 72.576 489.345 71.888 489.137 71.424C488.929 70.96 488.569 70.728 488.057 70.728C487.321 70.728 486.825 71.072 486.569 71.76C486.329 72.448 486.209 73.504 486.209 74.928V81H482.201V67.824H485.249L485.777 69.504H485.945C486.201 69.072 486.489 68.72 486.809 68.448C487.145 68.16 487.529 67.944 487.961 67.8C488.393 67.656 488.873 67.584 489.401 67.584ZM499.961 67.584C500.729 67.584 501.361 67.744 501.857 68.064C502.353 68.368 502.769 68.84 503.105 69.48H503.225L503.537 67.824H506.993V80.688C506.993 82 506.761 83.104 506.297 84C505.849 84.912 505.161 85.6 504.233 86.064C503.305 86.528 502.121 86.76 500.681 86.76C499.785 86.76 498.977 86.696 498.257 86.568C497.553 86.44 496.881 86.224 496.241 85.92V82.728C496.721 82.952 497.177 83.136 497.609 83.28C498.057 83.44 498.505 83.552 498.953 83.616C499.417 83.696 499.921 83.736 500.465 83.736C501.297 83.736 501.921 83.536 502.337 83.136C502.769 82.736 502.985 82.104 502.985 81.24V81.024C502.985 80.768 502.993 80.488 503.009 80.184C503.041 79.864 503.073 79.568 503.105 79.296H502.985C502.681 79.936 502.281 80.424 501.785 80.76C501.305 81.08 500.673 81.24 499.889 81.24C498.609 81.24 497.585 80.648 496.817 79.464C496.065 78.28 495.689 76.608 495.689 74.448C495.689 72.992 495.865 71.752 496.217 70.728C496.569 69.704 497.065 68.928 497.705 68.4C498.345 67.856 499.097 67.584 499.961 67.584ZM501.401 70.704C501.033 70.704 500.729 70.848 500.489 71.136C500.249 71.408 500.065 71.824 499.937 72.384C499.825 72.944 499.769 73.656 499.769 74.52C499.769 75.752 499.905 76.664 500.177 77.256C500.449 77.848 500.865 78.144 501.425 78.144C501.761 78.144 502.033 78.08 502.241 77.952C502.465 77.824 502.649 77.632 502.793 77.376C502.937 77.104 503.041 76.768 503.105 76.368C503.169 75.952 503.201 75.464 503.201 74.904V74.352C503.201 73.504 503.145 72.816 503.033 72.288C502.921 71.744 502.729 71.344 502.457 71.088C502.201 70.832 501.849 70.704 501.401 70.704ZM766.593 81L763.353 68.304H763.257C763.289 68.688 763.321 69.16 763.353 69.72C763.385 70.264 763.409 70.832 763.425 71.424C763.457 72 763.473 72.536 763.473 73.032V81H759.777V63.864H765.513L768.441 75.408H768.489L771.417 63.864H777.129V81H773.313V72.936C773.313 72.456 773.313 71.936 773.313 71.376C773.329 70.8 773.353 70.24 773.385 69.696C773.417 69.152 773.441 68.688 773.457 68.304H773.385L770.145 81H766.593ZM785.298 67.584C786.45 67.584 787.426 67.816 788.226 68.28C789.042 68.744 789.666 69.424 790.098 70.32C790.53 71.2 790.746 72.288 790.746 73.584V75.456H783.642C783.674 76.384 783.898 77.104 784.314 77.616C784.73 78.112 785.362 78.36 786.21 78.36C786.914 78.36 787.562 78.28 788.154 78.12C788.746 77.96 789.37 77.704 790.026 77.352V80.28C789.45 80.616 788.818 80.856 788.13 81C787.458 81.16 786.642 81.24 785.682 81.24C784.45 81.24 783.378 80.992 782.466 80.496C781.57 80 780.874 79.248 780.378 78.24C779.882 77.232 779.634 75.984 779.634 74.496C779.634 72.96 779.866 71.68 780.33 70.656C780.794 69.632 781.45 68.864 782.298 68.352C783.146 67.84 784.146 67.584 785.298 67.584ZM785.418 70.344C784.938 70.344 784.538 70.552 784.218 70.968C783.914 71.368 783.738 72.008 783.69 72.888H787.098C787.098 72.376 787.034 71.936 786.906 71.568C786.778 71.184 786.586 70.888 786.33 70.68C786.09 70.456 785.786 70.344 785.418 70.344ZM798.598 67.56C800.07 67.56 801.214 67.96 802.03 68.76C802.862 69.544 803.278 70.72 803.278 72.288V81H800.47L799.726 79.248H799.63C799.31 79.696 798.974 80.072 798.622 80.376C798.286 80.68 797.894 80.896 797.446 81.024C796.998 81.168 796.47 81.24 795.862 81.24C795.142 81.24 794.518 81.072 793.99 80.736C793.462 80.4 793.054 79.92 792.766 79.296C792.478 78.656 792.334 77.904 792.334 77.04C792.334 75.632 792.758 74.584 793.606 73.896C794.47 73.208 795.71 72.832 797.326 72.768L799.246 72.696V72.288C799.246 71.648 799.118 71.184 798.862 70.896C798.622 70.592 798.27 70.44 797.806 70.44C797.374 70.44 796.878 70.528 796.318 70.704C795.774 70.864 795.214 71.096 794.638 71.4L793.51 68.736C794.198 68.352 794.966 68.064 795.814 67.872C796.662 67.664 797.59 67.56 798.598 67.56ZM798.382 75.048C797.662 75.08 797.15 75.256 796.846 75.576C796.542 75.896 796.39 76.336 796.39 76.896C796.39 77.408 796.494 77.784 796.702 78.024C796.91 78.264 797.19 78.384 797.542 78.384C798.022 78.384 798.43 78.176 798.766 77.76C799.102 77.344 799.27 76.792 799.27 76.104V75L798.382 75.048ZM813.213 67.584C814.445 67.584 815.429 67.976 816.165 68.76C816.901 69.544 817.269 70.752 817.269 72.384V81H813.261V73.488C813.261 72.576 813.157 71.888 812.949 71.424C812.741 70.96 812.381 70.728 811.869 70.728C811.133 70.728 810.637 71.072 810.381 71.76C810.141 72.448 810.021 73.504 810.021 74.928V81H806.013V67.824H809.061L809.589 69.504H809.757C810.013 69.072 810.301 68.72 810.621 68.448C810.957 68.16 811.341 67.944 811.773 67.8C812.205 67.656 812.685 67.584 813.213 67.584ZM824.037 67.824V81H820.029V67.824H824.037ZM822.045 62.568C822.669 62.568 823.181 62.712 823.581 63C823.981 63.288 824.181 63.776 824.181 64.464C824.181 65.152 823.973 65.64 823.557 65.928C823.157 66.2 822.653 66.336 822.045 66.336C821.421 66.336 820.909 66.2 820.509 65.928C820.109 65.64 819.909 65.152 819.909 64.464C819.909 63.76 820.101 63.272 820.485 63C820.885 62.712 821.405 62.568 822.045 62.568ZM834.049 67.584C835.281 67.584 836.265 67.976 837.001 68.76C837.737 69.544 838.105 70.752 838.105 72.384V81H834.097V73.488C834.097 72.576 833.993 71.888 833.785 71.424C833.577 70.96 833.217 70.728 832.705 70.728C831.969 70.728 831.473 71.072 831.217 71.76C830.977 72.448 830.857 73.504 830.857 74.928V81H826.849V67.824H829.897L830.425 69.504H830.593C830.849 69.072 831.137 68.72 831.457 68.448C831.793 68.16 832.177 67.944 832.609 67.8C833.041 67.656 833.521 67.584 834.049 67.584ZM844.609 67.584C845.377 67.584 846.009 67.744 846.505 68.064C847.001 68.368 847.417 68.84 847.753 69.48H847.873L848.185 67.824H851.641V80.688C851.641 82 851.409 83.104 850.945 84C850.497 84.912 849.809 85.6 848.881 86.064C847.953 86.528 846.769 86.76 845.329 86.76C844.433 86.76 843.625 86.696 842.905 86.568C842.201 86.44 841.529 86.224 840.889 85.92V82.728C841.369 82.952 841.825 83.136 842.257 83.28C842.705 83.44 843.153 83.552 843.601 83.616C844.065 83.696 844.569 83.736 845.113 83.736C845.945 83.736 846.569 83.536 846.985 83.136C847.417 82.736 847.633 82.104 847.633 81.24V81.024C847.633 80.768 847.641 80.488 847.657 80.184C847.689 79.864 847.721 79.568 847.753 79.296H847.633C847.329 79.936 846.929 80.424 846.433 80.76C845.953 81.08 845.321 81.24 844.537 81.24C843.257 81.24 842.233 80.648 841.465 79.464C840.713 78.28 840.337 76.608 840.337 74.448C840.337 72.992 840.513 71.752 840.865 70.728C841.217 69.704 841.713 68.928 842.353 68.4C842.993 67.856 843.745 67.584 844.609 67.584ZM846.049 70.704C845.681 70.704 845.377 70.848 845.137 71.136C844.897 71.408 844.713 71.824 844.585 72.384C844.473 72.944 844.417 73.656 844.417 74.52C844.417 75.752 844.553 76.664 844.825 77.256C845.097 77.848 845.513 78.144 846.073 78.144C846.409 78.144 846.681 78.08 846.889 77.952C847.113 77.824 847.297 77.632 847.441 77.376C847.585 77.104 847.689 76.768 847.753 76.368C847.817 75.952 847.849 75.464 847.849 74.904V74.352C847.849 73.504 847.793 72.816 847.681 72.288C847.569 71.744 847.377 71.344 847.105 71.088C846.849 70.832 846.497 70.704 846.049 70.704Z" fill="white"/>
<path d="M787.985 191.864C789.425 191.864 790.593 192.016 791.489 192.32C792.385 192.624 793.041 193.096 793.457 193.736C793.873 194.36 794.081 195.168 794.081 196.16C794.081 196.832 793.969 197.432 793.745 197.96C793.521 198.472 793.225 198.896 792.857 199.232C792.489 199.568 792.097 199.792 791.681 199.904V200.024C792.161 200.152 792.609 200.376 793.025 200.696C793.441 201 793.769 201.424 794.009 201.968C794.265 202.496 794.393 203.176 794.393 204.008C794.393 205.048 794.161 205.944 793.697 206.696C793.233 207.432 792.561 208 791.681 208.4C790.817 208.8 789.785 209 788.585 209H782.753V191.864H787.985ZM788.033 198.608C788.705 198.608 789.185 198.44 789.473 198.104C789.761 197.768 789.905 197.304 789.905 196.712C789.905 196.136 789.745 195.704 789.425 195.416C789.105 195.128 788.617 194.984 787.961 194.984H786.857V198.608H788.033ZM786.857 201.632V205.808H788.249C788.937 205.808 789.425 205.624 789.713 205.256C790.017 204.872 790.169 204.344 790.169 203.672C790.169 203.256 790.105 202.896 789.977 202.592C789.849 202.288 789.641 202.056 789.353 201.896C789.065 201.72 788.673 201.632 788.177 201.632H786.857ZM808.018 195.824V209H804.97L804.466 207.344H804.25C804.026 207.776 803.738 208.136 803.386 208.424C803.034 208.696 802.642 208.896 802.21 209.024C801.778 209.168 801.322 209.24 800.842 209.24C800.042 209.24 799.338 209.064 798.73 208.712C798.122 208.36 797.642 207.824 797.29 207.104C796.954 206.384 796.786 205.488 796.786 204.416V195.824H800.794V203.288C800.794 204.2 800.89 204.896 801.082 205.376C801.29 205.84 801.642 206.072 802.138 206.072C802.65 206.072 803.042 205.92 803.314 205.616C803.586 205.296 803.77 204.84 803.866 204.248C803.962 203.64 804.01 202.904 804.01 202.04V195.824H808.018ZM816.418 206.096C816.738 206.096 817.042 206.056 817.33 205.976C817.634 205.896 817.954 205.8 818.29 205.688V208.568C817.842 208.76 817.37 208.92 816.874 209.048C816.394 209.176 815.802 209.24 815.098 209.24C814.298 209.24 813.61 209.104 813.034 208.832C812.474 208.544 812.042 208.08 811.738 207.44C811.434 206.784 811.282 205.912 811.282 204.824V198.776H809.842V197.048L811.642 195.872L812.65 193.088H815.29V195.824H818.122V198.776H815.29V204.68C815.29 205.16 815.386 205.52 815.578 205.76C815.77 205.984 816.05 206.096 816.418 206.096Z" fill="white"/>
<path d="M763.893 319.864L760.197 337H755.397L753.909 329.128C753.877 328.904 753.829 328.624 753.765 328.288C753.717 327.936 753.661 327.56 753.597 327.16C753.533 326.744 753.477 326.336 753.429 325.936C753.381 325.52 753.341 325.152 753.309 324.832C753.277 325.12 753.229 325.464 753.165 325.864C753.117 326.264 753.061 326.672 752.997 327.088C752.949 327.488 752.893 327.872 752.829 328.24C752.765 328.592 752.709 328.888 752.661 329.128L751.173 337H746.397L742.677 319.864H746.637L748.293 328.6C748.341 328.872 748.397 329.2 748.461 329.584C748.525 329.968 748.589 330.368 748.653 330.784C748.733 331.2 748.797 331.616 748.845 332.032C748.893 332.432 748.941 332.8 748.989 333.136C749.037 332.784 749.085 332.408 749.133 332.008C749.197 331.608 749.261 331.216 749.325 330.832C749.389 330.432 749.453 330.056 749.517 329.704C749.581 329.336 749.645 329.016 749.709 328.744L751.485 319.864H755.133L756.837 328.696C756.901 328.968 756.965 329.288 757.029 329.656C757.093 330.024 757.157 330.408 757.221 330.808C757.285 331.208 757.341 331.608 757.389 332.008C757.453 332.408 757.509 332.784 757.557 333.136C757.605 332.688 757.669 332.192 757.749 331.648C757.845 331.088 757.941 330.536 758.037 329.992C758.133 329.432 758.221 328.952 758.301 328.552L759.909 319.864H763.893ZM769.517 322.144C769.517 322.832 769.493 323.472 769.445 324.064C769.413 324.64 769.365 325.112 769.301 325.48H769.517C769.741 325.032 770.005 324.672 770.309 324.4C770.629 324.112 770.989 323.904 771.389 323.776C771.789 323.648 772.221 323.584 772.685 323.584C773.485 323.584 774.189 323.76 774.797 324.112C775.421 324.448 775.901 324.976 776.237 325.696C776.589 326.4 776.765 327.296 776.765 328.384V337H772.733V329.488C772.733 328.56 772.621 327.872 772.397 327.424C772.189 326.96 771.853 326.728 771.389 326.728C770.909 326.728 770.533 326.888 770.261 327.208C769.989 327.528 769.797 328 769.685 328.624C769.573 329.232 769.517 330 769.517 330.928V337H765.509V318.76H769.517V322.144ZM784.661 323.584C785.813 323.584 786.789 323.816 787.589 324.28C788.405 324.744 789.029 325.424 789.461 326.32C789.893 327.2 790.109 328.288 790.109 329.584V331.456H783.005C783.037 332.384 783.261 333.104 783.677 333.616C784.093 334.112 784.725 334.36 785.573 334.36C786.277 334.36 786.925 334.28 787.517 334.12C788.109 333.96 788.733 333.704 789.389 333.352V336.28C788.813 336.616 788.181 336.856 787.493 337C786.821 337.16 786.005 337.24 785.045 337.24C783.813 337.24 782.741 336.992 781.829 336.496C780.933 336 780.237 335.248 779.741 334.24C779.245 333.232 778.997 331.984 778.997 330.496C778.997 328.96 779.229 327.68 779.693 326.656C780.157 325.632 780.813 324.864 781.661 324.352C782.509 323.84 783.509 323.584 784.661 323.584ZM784.781 326.344C784.301 326.344 783.901 326.552 783.581 326.968C783.277 327.368 783.101 328.008 783.053 328.888H786.461C786.461 328.376 786.397 327.936 786.269 327.568C786.141 327.184 785.949 326.888 785.693 326.68C785.453 326.456 785.149 326.344 784.781 326.344ZM799.329 323.584C799.537 323.584 799.753 323.592 799.977 323.608C800.201 323.624 800.385 323.656 800.529 323.704L800.193 327.472C800.033 327.44 799.849 327.408 799.641 327.376C799.449 327.344 799.185 327.328 798.849 327.328C798.545 327.328 798.241 327.384 797.937 327.496C797.649 327.608 797.385 327.784 797.145 328.024C796.905 328.248 796.713 328.552 796.569 328.936C796.425 329.32 796.353 329.8 796.353 330.376V337H792.345V323.824H795.369L795.969 325.96H796.161C796.369 325.544 796.633 325.152 796.953 324.784C797.273 324.416 797.633 324.128 798.033 323.92C798.449 323.696 798.881 323.584 799.329 323.584ZM806.95 323.584C808.102 323.584 809.078 323.816 809.878 324.28C810.694 324.744 811.318 325.424 811.75 326.32C812.182 327.2 812.398 328.288 812.398 329.584V331.456H805.294C805.326 332.384 805.55 333.104 805.966 333.616C806.382 334.112 807.014 334.36 807.862 334.36C808.566 334.36 809.214 334.28 809.806 334.12C810.398 333.96 811.022 333.704 811.678 333.352V336.28C811.102 336.616 810.47 336.856 809.782 337C809.11 337.16 808.294 337.24 807.334 337.24C806.102 337.24 805.03 336.992 804.118 336.496C803.222 336 802.526 335.248 802.03 334.24C801.534 333.232 801.286 331.984 801.286 330.496C801.286 328.96 801.518 327.68 801.982 326.656C802.446 325.632 803.102 324.864 803.95 324.352C804.798 323.84 805.798 323.584 806.95 323.584ZM807.07 326.344C806.59 326.344 806.19 326.552 805.87 326.968C805.566 327.368 805.39 328.008 805.342 328.888H808.75C808.75 328.376 808.686 327.936 808.558 327.568C808.43 327.184 808.238 326.888 807.982 326.68C807.742 326.456 807.438 326.344 807.07 326.344ZM821.642 326.776H819.218V337H815.21V326.776H813.626V324.856L815.258 323.824V323.32C815.258 322.184 815.394 321.28 815.666 320.608C815.938 319.92 816.362 319.424 816.938 319.12C817.53 318.8 818.29 318.64 819.218 318.64C819.81 318.64 820.346 318.696 820.826 318.808C821.306 318.904 821.818 319.04 822.362 319.216L821.522 321.928C821.314 321.848 821.09 321.784 820.85 321.736C820.61 321.688 820.362 321.664 820.106 321.664C819.786 321.664 819.554 321.792 819.41 322.048C819.282 322.304 819.218 322.696 819.218 323.224V323.824H821.642V326.776ZM834.348 330.376C834.348 331.4 834.22 332.336 833.964 333.184C833.724 334.016 833.356 334.736 832.86 335.344C832.38 335.952 831.772 336.424 831.036 336.76C830.316 337.08 829.476 337.24 828.516 337.24C827.62 337.24 826.812 337.08 826.092 336.76C825.372 336.424 824.764 335.96 824.268 335.368C823.772 334.76 823.388 334.032 823.116 333.184C822.86 332.336 822.732 331.4 822.732 330.376C822.732 328.968 822.956 327.76 823.404 326.752C823.852 325.744 824.508 324.968 825.372 324.424C826.236 323.864 827.308 323.584 828.588 323.584C829.724 323.584 830.724 323.848 831.588 324.376C832.452 324.904 833.124 325.672 833.604 326.68C834.1 327.688 834.348 328.92 834.348 330.376ZM826.812 330.4C826.812 331.216 826.868 331.912 826.98 332.488C827.108 333.048 827.3 333.472 827.556 333.76C827.812 334.048 828.148 334.192 828.564 334.192C828.98 334.192 829.308 334.048 829.548 333.76C829.804 333.472 829.988 333.048 830.1 332.488C830.212 331.912 830.268 331.208 830.268 330.376C830.268 329.544 830.212 328.848 830.1 328.288C829.988 327.728 829.804 327.312 829.548 327.04C829.292 326.768 828.956 326.632 828.54 326.632C827.916 326.632 827.468 326.944 827.196 327.568C826.94 328.192 826.812 329.136 826.812 330.4ZM843.626 323.584C843.834 323.584 844.05 323.592 844.274 323.608C844.498 323.624 844.682 323.656 844.826 323.704L844.49 327.472C844.33 327.44 844.146 327.408 843.938 327.376C843.746 327.344 843.482 327.328 843.146 327.328C842.842 327.328 842.538 327.384 842.234 327.496C841.946 327.608 841.682 327.784 841.442 328.024C841.202 328.248 841.01 328.552 840.866 328.936C840.722 329.32 840.65 329.8 840.65 330.376V337H836.642V323.824H839.666L840.266 325.96H840.458C840.666 325.544 840.93 325.152 841.25 324.784C841.57 324.416 841.93 324.128 842.33 323.92C842.746 323.696 843.178 323.584 843.626 323.584ZM851.247 323.584C852.399 323.584 853.375 323.816 854.175 324.28C854.991 324.744 855.615 325.424 856.047 326.32C856.479 327.2 856.695 328.288 856.695 329.584V331.456H849.591C849.623 332.384 849.847 333.104 850.263 333.616C850.679 334.112 851.311 334.36 852.159 334.36C852.863 334.36 853.511 334.28 854.103 334.12C854.695 333.96 855.319 333.704 855.975 333.352V336.28C855.399 336.616 854.767 336.856 854.079 337C853.407 337.16 852.591 337.24 851.631 337.24C850.399 337.24 849.327 336.992 848.415 336.496C847.519 336 846.823 335.248 846.327 334.24C845.831 333.232 845.583 331.984 845.583 330.496C845.583 328.96 845.815 327.68 846.279 326.656C846.743 325.632 847.399 324.864 848.247 324.352C849.095 323.84 850.095 323.584 851.247 323.584ZM851.367 326.344C850.887 326.344 850.487 326.552 850.167 326.968C849.863 327.368 849.687 328.008 849.639 328.888H853.047C853.047 328.376 852.983 327.936 852.855 327.568C852.727 327.184 852.535 326.888 852.279 326.68C852.039 326.456 851.735 326.344 851.367 326.344Z" fill="white"/>
<path d="M769.336 465H765.232V451.176H761.632V447.864H772.936V451.176H769.336V465ZM778.81 450.144C778.81 450.832 778.786 451.472 778.738 452.064C778.706 452.64 778.658 453.112 778.594 453.48H778.81C779.034 453.032 779.298 452.672 779.602 452.4C779.922 452.112 780.282 451.904 780.682 451.776C781.082 451.648 781.514 451.584 781.978 451.584C782.778 451.584 783.482 451.76 784.09 452.112C784.714 452.448 785.194 452.976 785.53 453.696C785.882 454.4 786.058 455.296 786.058 456.384V465H782.026V457.488C782.026 456.56 781.914 455.872 781.69 455.424C781.482 454.96 781.146 454.728 780.682 454.728C780.202 454.728 779.826 454.888 779.554 455.208C779.282 455.528 779.09 456 778.978 456.624C778.866 457.232 778.81 458 778.81 458.928V465H774.802V446.76H778.81V450.144ZM794.41 451.56C795.882 451.56 797.026 451.96 797.842 452.76C798.674 453.544 799.09 454.72 799.09 456.288V465H796.282L795.538 463.248H795.442C795.122 463.696 794.786 464.072 794.434 464.376C794.098 464.68 793.706 464.896 793.258 465.024C792.81 465.168 792.282 465.24 791.674 465.24C790.954 465.24 790.33 465.072 789.802 464.736C789.274 464.4 788.866 463.92 788.578 463.296C788.29 462.656 788.146 461.904 788.146 461.04C788.146 459.632 788.57 458.584 789.418 457.896C790.282 457.208 791.522 456.832 793.138 456.768L795.058 456.696V456.288C795.058 455.648 794.93 455.184 794.674 454.896C794.434 454.592 794.082 454.44 793.618 454.44C793.186 454.44 792.69 454.528 792.13 454.704C791.586 454.864 791.026 455.096 790.45 455.4L789.322 452.736C790.01 452.352 790.778 452.064 791.626 451.872C792.474 451.664 793.402 451.56 794.41 451.56ZM794.194 459.048C793.474 459.08 792.962 459.256 792.658 459.576C792.354 459.896 792.202 460.336 792.202 460.896C792.202 461.408 792.306 461.784 792.514 462.024C792.722 462.264 793.002 462.384 793.354 462.384C793.834 462.384 794.242 462.176 794.578 461.76C794.914 461.344 795.082 460.792 795.082 460.104V459L794.194 459.048ZM809.026 451.584C810.258 451.584 811.242 451.976 811.978 452.76C812.714 453.544 813.082 454.752 813.082 456.384V465H809.074V457.488C809.074 456.576 808.97 455.888 808.762 455.424C808.554 454.96 808.194 454.728 807.682 454.728C806.946 454.728 806.45 455.072 806.194 455.76C805.954 456.448 805.834 457.504 805.834 458.928V465H801.826V451.824H804.874L805.402 453.504H805.57C805.826 453.072 806.114 452.72 806.434 452.448C806.77 452.16 807.154 451.944 807.586 451.8C808.018 451.656 808.498 451.584 809.026 451.584ZM819.826 454.44C819.826 454.968 819.81 455.52 819.778 456.096C819.746 456.656 819.69 457.2 819.61 457.728H819.706C819.802 457.52 819.914 457.304 820.042 457.08C820.17 456.856 820.306 456.632 820.45 456.408C820.594 456.184 820.738 455.968 820.882 455.76L823.522 451.824H827.938L823.93 457.416L828.154 465H823.642L821.122 459.912L819.826 461.064V465H815.818V446.76H819.826V454.44ZM838.049 461.04C838.049 461.92 837.873 462.672 837.521 463.296C837.185 463.92 836.657 464.4 835.937 464.736C835.217 465.072 834.289 465.24 833.153 465.24C832.353 465.24 831.625 465.184 830.969 465.072C830.313 464.96 829.649 464.768 828.977 464.496V461.184C829.649 461.52 830.337 461.784 831.041 461.976C831.761 462.168 832.377 462.264 832.889 462.264C833.353 462.264 833.689 462.184 833.897 462.024C834.105 461.864 834.209 461.632 834.209 461.328C834.209 461.12 834.145 460.936 834.017 460.776C833.889 460.616 833.649 460.44 833.297 460.248C832.961 460.04 832.465 459.776 831.809 459.456C831.169 459.136 830.641 458.8 830.225 458.448C829.809 458.08 829.489 457.648 829.265 457.152C829.057 456.64 828.953 456.04 828.953 455.352C828.953 454.12 829.385 453.184 830.249 452.544C831.113 451.904 832.273 451.584 833.729 451.584C834.481 451.584 835.193 451.672 835.865 451.848C836.537 452.024 837.225 452.288 837.929 452.64L836.873 455.352C836.521 455.16 836.153 455 835.769 454.872C835.401 454.728 835.049 454.616 834.713 454.536C834.393 454.456 834.089 454.416 833.801 454.416C833.465 454.416 833.209 454.48 833.033 454.608C832.873 454.736 832.793 454.928 832.793 455.184C832.793 455.376 832.841 455.544 832.937 455.688C833.049 455.816 833.273 455.976 833.609 456.168C833.945 456.36 834.425 456.608 835.049 456.912C835.705 457.216 836.257 457.544 836.705 457.896C837.153 458.248 837.489 458.672 837.713 459.168C837.937 459.664 838.049 460.288 838.049 461.04Z" fill="white"/>
<path d="M457.937 208.328C457.937 207.768 458.009 207.072 458.153 206.24C458.313 205.392 458.657 204.384 459.185 203.216L462.137 204.248C461.865 205 461.657 205.648 461.513 206.192C461.369 206.72 461.297 207.24 461.297 207.752C461.297 208.472 461.457 209.088 461.777 209.6C462.113 210.112 462.601 210.504 463.241 210.776C463.897 211.048 464.697 211.184 465.641 211.184C466.601 211.184 467.401 211.08 468.041 210.872C468.681 210.664 469.185 210.368 469.553 209.984C469.921 209.616 470.185 209.184 470.345 208.688C470.505 208.192 470.585 207.656 470.585 207.08C470.585 206.632 470.529 206.128 470.417 205.568C470.321 205.008 470.177 204.4 469.984 203.744C469.793 203.072 469.577 202.368 469.337 201.632L472.697 200.768C472.857 201.376 472.985 201.896 473.081 202.328C473.193 202.76 473.289 203.12 473.369 203.408C473.449 203.68 473.513 203.904 473.561 204.08C473.721 204.56 473.937 204.92 474.209 205.16C474.481 205.4 474.833 205.56 475.265 205.64C475.713 205.72 476.249 205.76 476.873 205.76C477.481 205.76 477.913 205.92 478.169 206.24C478.425 206.544 478.553 206.928 478.553 207.392C478.553 207.888 478.385 208.304 478.049 208.64C477.713 208.96 477.241 209.12 476.633 209.12C476.089 209.12 475.545 209.048 475.001 208.904C474.473 208.744 474.017 208.488 473.633 208.136C473.249 207.784 473.001 207.312 472.889 206.72L473.777 207.68C473.745 208.768 473.529 209.736 473.129 210.584C472.729 211.432 472.169 212.152 471.449 212.744C470.745 213.336 469.889 213.784 468.881 214.088C467.889 214.392 466.777 214.544 465.545 214.544C464.473 214.544 463.473 214.424 462.545 214.184C461.633 213.96 460.825 213.592 460.121 213.08C459.433 212.584 458.897 211.944 458.513 211.16C458.129 210.376 457.937 209.432 457.937 208.328ZM465.761 199.208C465.265 199.208 464.841 199.04 464.489 198.704C464.153 198.368 463.985 197.952 463.985 197.456C463.985 196.96 464.153 196.536 464.489 196.184C464.841 195.832 465.265 195.656 465.761 195.656C466.241 195.656 466.649 195.832 466.985 196.184C467.337 196.536 467.513 196.96 467.513 197.456C467.513 197.952 467.337 198.368 466.985 198.704C466.649 199.04 466.241 199.208 465.761 199.208ZM476.625 209.12L476.865 205.76H480.297C480.633 205.76 480.929 205.744 481.185 205.712C481.441 205.664 481.649 205.592 481.809 205.496C481.985 205.4 482.113 205.28 482.193 205.136C482.273 204.992 482.313 204.824 482.313 204.632C482.313 204.44 482.209 204.136 482.001 203.72C481.809 203.288 481.385 202.768 480.729 202.16C480.377 201.84 479.993 201.504 479.577 201.152C479.177 200.784 478.793 200.44 478.425 200.12C478.057 199.784 477.753 199.488 477.513 199.232C477.273 198.976 477.153 198.792 477.153 198.68C477.153 198.44 477.169 198.176 477.201 197.888C477.233 197.6 477.281 197.336 477.345 197.096C477.425 196.856 477.529 196.68 477.657 196.568C477.929 196.312 478.329 196.016 478.857 195.68C479.401 195.328 480.049 194.952 480.801 194.552C481.553 194.136 482.393 193.704 483.321 193.256C484.265 192.792 485.273 192.328 486.345 191.864L487.713 194.792C486.833 195.176 486.001 195.552 485.217 195.92C484.433 196.272 483.697 196.624 483.009 196.976C482.337 197.312 481.713 197.648 481.137 197.984C480.577 198.304 480.081 198.624 479.649 198.944L479.961 197.168C481.321 198.208 482.401 199.144 483.201 199.976C484.017 200.808 484.625 201.552 485.025 202.208C485.425 202.848 485.689 203.424 485.817 203.936C485.945 204.432 486.009 204.872 486.009 205.256C486.009 205.64 485.913 206.056 485.721 206.504C485.545 206.936 485.217 207.352 484.737 207.752C484.273 208.152 483.617 208.48 482.769 208.736C481.921 208.992 480.833 209.12 479.505 209.12H476.625ZM496.979 196.136C496.979 195.608 496.947 195.08 496.883 194.552C496.835 194.024 496.771 193.528 496.691 193.064C496.611 192.584 496.539 192.168 496.475 191.816L499.835 191.336C499.899 191.656 499.963 192.08 500.027 192.608C500.091 193.136 500.147 193.696 500.195 194.288C500.243 194.864 500.267 195.416 500.267 195.944C500.267 196.776 500.195 197.56 500.051 198.296C499.907 199.032 499.691 199.728 499.403 200.384C499.115 201.024 498.755 201.64 498.323 202.232L497.891 202.808C497.475 203.32 496.987 203.824 496.427 204.32C495.883 204.816 495.283 205.296 494.627 205.76H496.187C496.731 205.76 497.147 205.728 497.435 205.664C497.723 205.6 497.915 205.512 498.011 205.4C498.123 205.272 498.179 205.128 498.179 204.968C498.179 204.68 497.931 204.256 497.435 203.696C496.939 203.12 496.251 202.464 495.371 201.728C494.491 200.976 493.459 200.184 492.275 199.352C491.107 198.504 489.843 197.656 488.483 196.808L490.235 194.24C492.123 195.408 493.715 196.48 495.011 197.456C496.323 198.432 497.395 199.32 498.227 200.12C499.075 200.92 499.731 201.648 500.195 202.304C500.659 202.96 500.979 203.552 501.155 204.08C501.331 204.592 501.419 205.056 501.419 205.472C501.419 205.936 501.347 206.384 501.203 206.816C501.059 207.232 500.827 207.608 500.507 207.944C500.187 208.264 499.771 208.52 499.259 208.712C498.747 208.904 498.115 209 497.363 209H490.307V205.784C491.955 204.6 493.259 203.48 494.219 202.424C495.195 201.368 495.899 200.328 496.331 199.304C496.763 198.28 496.979 197.224 496.979 196.136Z" fill="white"/>
<path d="M461.231 337.504L461.855 334.144C463.375 334.16 464.599 334.12 465.527 334.024C466.471 333.912 467.183 333.712 467.663 333.424C468.159 333.12 468.479 332.696 468.623 332.152C468.783 331.592 468.839 330.88 468.791 330.016L468.263 319.432H471.623L472.151 330.184C472.199 331.144 472.311 331.88 472.487 332.392C472.663 332.904 472.927 333.264 473.279 333.472C473.631 333.664 474.095 333.76 474.671 333.76C475.263 333.76 475.687 333.92 475.943 334.24C476.215 334.544 476.351 334.928 476.351 335.392C476.351 335.888 476.183 336.304 475.847 336.64C475.511 336.96 475.039 337.12 474.431 337.12C473.727 337.12 473.095 337.032 472.535 336.856C471.975 336.68 471.511 336.376 471.143 335.944C470.775 335.496 470.527 334.896 470.399 334.144H471.479C471.111 334.928 470.607 335.552 469.967 336.016C469.343 336.48 468.591 336.816 467.711 337.024C466.847 337.248 465.871 337.384 464.783 337.432C463.695 337.496 462.511 337.52 461.231 337.504ZM460.079 331.816L459.455 329.44C460.015 329.296 460.471 329.168 460.823 329.056C461.191 328.944 461.463 328.832 461.639 328.72C461.815 328.608 461.903 328.496 461.903 328.384C461.903 328.24 461.831 328.088 461.687 327.928C461.543 327.768 461.383 327.584 461.207 327.376C461.031 327.168 460.871 326.936 460.727 326.68C460.583 326.424 460.511 326.128 460.511 325.792C460.511 325.392 460.623 325.016 460.847 324.664C461.071 324.296 461.431 323.944 461.927 323.608C462.439 323.256 463.111 322.912 463.943 322.576L464.975 324.712C464.303 324.984 463.847 325.224 463.607 325.432C463.383 325.624 463.271 325.808 463.271 325.984C463.271 326.128 463.343 326.296 463.487 326.488C463.631 326.68 463.791 326.896 463.967 327.136C464.159 327.36 464.327 327.616 464.471 327.904C464.615 328.176 464.687 328.472 464.687 328.792C464.687 329.048 464.631 329.312 464.519 329.584C464.423 329.856 464.215 330.12 463.895 330.376C463.591 330.632 463.135 330.88 462.527 331.12C461.919 331.36 461.103 331.592 460.079 331.816ZM461.231 337.504C459.503 337.504 458.039 337.368 456.839 337.096C455.655 336.84 454.687 336.472 453.935 335.992C453.199 335.496 452.663 334.92 452.327 334.264C451.991 333.608 451.823 332.888 451.823 332.104C451.823 331.592 451.863 331.08 451.943 330.568C452.039 330.04 452.151 329.528 452.279 329.032C452.423 328.536 452.551 328.088 452.663 327.688L455.663 328.384C455.599 328.672 455.527 328.984 455.447 329.32C455.367 329.656 455.303 329.984 455.255 330.304C455.207 330.608 455.183 330.888 455.183 331.144C455.183 331.736 455.391 332.264 455.807 332.728C456.239 333.176 456.943 333.528 457.919 333.784C458.895 334.024 460.207 334.144 461.855 334.144L462.335 336.736L461.231 337.504ZM474.422 337.12L474.662 333.76C475.398 333.76 475.926 333.688 476.246 333.544C476.566 333.384 476.758 333.096 476.822 332.68C476.886 332.248 476.902 331.624 476.87 330.808L476.438 319.432H479.822L480.302 331.048C480.334 331.976 480.294 332.816 480.182 333.568C480.086 334.304 479.838 334.936 479.438 335.464C479.054 335.992 478.454 336.4 477.638 336.688C476.838 336.976 475.766 337.12 474.422 337.12ZM483.467 337L482.963 319.432H486.323L486.827 337H483.467ZM493.341 333.76C494.061 333.76 494.613 333.696 494.997 333.568C495.381 333.44 495.645 333.272 495.789 333.064C495.933 332.856 496.005 332.632 496.005 332.392C496.005 332.008 495.893 331.56 495.669 331.048C495.461 330.536 495.197 330 494.877 329.44C494.557 328.88 494.221 328.344 493.869 327.832C493.533 327.32 493.229 326.872 492.957 326.488L495.813 324.592C496.501 325.52 497.093 326.44 497.589 327.352C498.085 328.248 498.485 329.08 498.789 329.848C499.109 330.616 499.333 331.272 499.461 331.816C499.589 332.328 499.781 332.728 500.037 333.016C500.309 333.288 500.621 333.48 500.973 333.592C501.325 333.704 501.677 333.76 502.029 333.76C502.637 333.76 503.069 333.92 503.325 334.24C503.597 334.544 503.733 334.928 503.733 335.392C503.733 335.888 503.565 336.304 503.229 336.64C502.909 336.96 502.429 337.12 501.789 337.12C501.085 337.12 500.469 337.024 499.941 336.832C499.413 336.64 498.965 336.336 498.597 335.92C498.229 335.504 497.917 334.976 497.661 334.336L499.125 334.648C498.997 335.096 498.701 335.512 498.237 335.896C497.789 336.264 497.189 336.568 496.437 336.808C495.701 337.032 494.829 337.144 493.821 337.144C493.341 337.144 492.805 337.104 492.213 337.024C491.637 336.944 491.061 336.824 490.485 336.664C489.925 336.504 489.413 336.296 488.949 336.04L490.125 332.992C490.717 333.248 491.285 333.44 491.829 333.568C492.389 333.696 492.893 333.76 493.341 333.76ZM493.485 322.768C492.989 322.768 492.565 322.6 492.213 322.264C491.877 321.928 491.709 321.512 491.709 321.016C491.709 320.52 491.877 320.096 492.213 319.744C492.565 319.392 492.989 319.216 493.485 319.216C493.965 319.216 494.373 319.392 494.709 319.744C495.061 320.096 495.237 320.52 495.237 321.016C495.237 321.512 495.061 321.928 494.709 322.264C494.373 322.6 493.965 322.768 493.485 322.768ZM501.82 337.12L502.06 333.76C502.796 333.76 503.324 333.688 503.644 333.544C503.964 333.384 504.156 333.096 504.22 332.68C504.284 332.248 504.3 331.624 504.268 330.808L503.836 319.432H507.22L507.7 331.048C507.732 331.976 507.692 332.816 507.58 333.568C507.484 334.304 507.236 334.936 506.836 335.464C506.452 335.992 505.852 336.4 505.036 336.688C504.236 336.976 503.164 337.12 501.82 337.12Z" fill="white"/>
<path d="M448.831 464.328C448.831 463.96 448.863 463.528 448.927 463.032C448.991 462.536 449.111 461.976 449.287 461.352C449.463 460.712 449.727 460 450.079 459.216L453.031 460.248C452.855 460.744 452.703 461.2 452.575 461.616C452.447 462.016 452.351 462.392 452.287 462.744C452.223 463.08 452.191 463.416 452.191 463.752C452.191 464.536 452.367 465.176 452.719 465.672C453.087 466.184 453.599 466.56 454.255 466.8C454.911 467.056 455.671 467.184 456.535 467.184C457.527 467.184 458.343 467.048 458.983 466.776C459.623 466.52 460.119 466.176 460.471 465.744C460.823 465.328 461.071 464.872 461.215 464.376C461.359 463.864 461.431 463.368 461.431 462.888C461.431 462.232 461.319 461.456 461.095 460.56C460.871 459.648 460.471 458.624 459.895 457.488L462.991 456.168C463.311 456.728 463.607 457.384 463.879 458.136C464.151 458.872 464.367 459.64 464.527 460.44C464.703 461.24 464.791 462 464.791 462.72C464.791 463.36 464.711 464.04 464.551 464.76C464.391 465.464 464.119 466.16 463.735 466.848C463.367 467.536 462.863 468.152 462.223 468.696C461.583 469.256 460.791 469.704 459.847 470.04C458.903 470.376 457.775 470.544 456.463 470.544C455.407 470.544 454.415 470.424 453.487 470.184C452.575 469.96 451.767 469.6 451.063 469.104C450.375 468.608 449.831 467.96 449.431 467.16C449.031 466.376 448.831 465.432 448.831 464.328ZM456.655 455.208C456.159 455.208 455.735 455.04 455.383 454.704C455.047 454.368 454.879 453.952 454.879 453.456C454.879 452.96 455.047 452.536 455.383 452.184C455.735 451.832 456.159 451.656 456.655 451.656C457.135 451.656 457.543 451.832 457.879 452.184C458.231 452.536 458.407 452.96 458.407 453.456C458.407 453.952 458.231 454.368 457.879 454.704C457.543 455.04 457.135 455.208 456.655 455.208ZM466.38 470.544L465.156 467.568C466.004 467.28 466.78 466.944 467.484 466.56C468.204 466.176 468.828 465.752 469.356 465.288C469.884 464.824 470.292 464.32 470.58 463.776C470.868 463.216 471.012 462.616 471.012 461.976C471.012 461.304 470.86 460.568 470.556 459.768C470.252 458.968 469.884 458.152 469.452 457.32L472.596 455.808C472.884 456.304 473.132 456.84 473.34 457.416C473.564 457.976 473.748 458.48 473.892 458.928C474.036 459.376 474.132 459.68 474.18 459.84C474.404 460.608 474.708 461.12 475.092 461.376C475.492 461.632 476.132 461.76 477.012 461.76C477.62 461.76 478.052 461.92 478.308 462.24C478.58 462.544 478.716 462.928 478.716 463.392C478.716 463.888 478.548 464.304 478.212 464.64C477.876 464.96 477.396 465.12 476.772 465.12C476.116 465.12 475.54 465.024 475.044 464.832C474.548 464.64 474.148 464.36 473.844 463.992C473.556 463.624 473.372 463.192 473.292 462.696L474.18 463.2C474.084 464.048 473.804 464.848 473.34 465.6C472.892 466.368 472.308 467.072 471.588 467.712C470.868 468.352 470.06 468.912 469.164 469.392C468.268 469.872 467.34 470.256 466.38 470.544ZM476.801 465.12L477.041 461.76H480.401C480.961 461.76 481.385 461.728 481.673 461.664C481.977 461.6 482.185 461.504 482.297 461.376C482.409 461.232 482.465 461.064 482.465 460.872C482.465 460.584 482.337 460.248 482.081 459.864C481.841 459.48 481.521 459.08 481.121 458.664C480.737 458.248 480.329 457.832 479.897 457.416C479.465 456.984 479.049 456.584 478.649 456.216C478.265 455.848 477.945 455.528 477.689 455.256C477.449 454.968 477.329 454.76 477.329 454.632C477.329 454.184 477.353 453.832 477.401 453.576C477.449 453.304 477.513 453.088 477.593 452.928C477.689 452.768 477.793 452.632 477.905 452.52C478.177 452.248 478.585 451.944 479.129 451.608C479.673 451.256 480.313 450.888 481.049 450.504C481.801 450.104 482.641 449.688 483.569 449.256C484.497 448.808 485.481 448.344 486.521 447.864L487.889 450.792C486.833 451.256 485.889 451.688 485.057 452.088C484.241 452.472 483.505 452.832 482.849 453.168C482.209 453.488 481.633 453.792 481.121 454.08C480.625 454.368 480.177 454.64 479.777 454.896L480.017 453.12C480.705 453.712 481.329 454.272 481.889 454.8C482.449 455.328 482.969 455.856 483.449 456.384C483.929 456.912 484.377 457.456 484.793 458.016C485.225 458.576 485.641 459.184 486.041 459.84C486.393 460.4 486.753 460.816 487.121 461.088C487.505 461.36 487.873 461.544 488.225 461.64C488.593 461.72 488.921 461.76 489.209 461.76C489.817 461.76 490.249 461.92 490.505 462.24C490.777 462.544 490.913 462.928 490.913 463.392C490.913 463.888 490.745 464.304 490.409 464.64C490.073 464.96 489.593 465.12 488.969 465.12C488.441 465.12 487.873 465.032 487.265 464.856C486.657 464.664 486.089 464.36 485.561 463.944C485.033 463.528 484.633 462.96 484.361 462.24L485.657 462.336C485.417 462.848 485.129 463.288 484.793 463.656C484.473 464.008 484.089 464.296 483.641 464.52C483.193 464.728 482.681 464.88 482.105 464.976C481.529 465.072 480.881 465.12 480.161 465.12H476.801ZM488.988 465.12L489.228 461.76C489.756 461.76 490.188 461.72 490.524 461.64C490.86 461.544 491.132 461.344 491.34 461.04C491.564 460.72 491.756 460.248 491.916 459.624C492.092 458.984 492.284 458.12 492.492 457.032L495.612 457.608C495.564 457.848 495.508 458.128 495.444 458.448C495.38 458.768 495.324 459.096 495.276 459.432C495.228 459.752 495.204 460.04 495.204 460.296C495.204 460.744 495.348 461.104 495.636 461.376C495.924 461.632 496.468 461.76 497.268 461.76C497.668 461.76 498.012 461.72 498.3 461.64C498.604 461.544 498.86 461.344 499.068 461.04C499.292 460.72 499.484 460.232 499.644 459.576C499.82 458.904 499.988 458 500.148 456.864L503.316 457.368C503.252 457.736 503.188 458.128 503.124 458.544C503.06 458.96 503.004 459.344 502.956 459.696C502.908 460.048 502.884 460.336 502.884 460.56C502.884 460.768 502.94 460.968 503.052 461.16C503.18 461.336 503.404 461.48 503.724 461.592C504.06 461.704 504.532 461.76 505.14 461.76C505.572 461.76 505.94 461.704 506.244 461.592C506.564 461.48 506.804 461.296 506.964 461.04C507.14 460.784 507.228 460.448 507.228 460.032C507.228 459.44 507.092 458.664 506.82 457.704C506.548 456.744 506.228 455.736 505.86 454.68L509.244 453.672C509.5 454.36 509.724 455.096 509.916 455.88C510.124 456.648 510.284 457.4 510.396 458.136C510.524 458.856 510.588 459.488 510.588 460.032C510.588 460.848 510.46 461.576 510.204 462.216C509.948 462.84 509.588 463.368 509.124 463.8C508.66 464.232 508.108 464.56 507.468 464.784C506.828 465.008 506.124 465.12 505.356 465.12C504.428 465.12 503.668 465.032 503.076 464.856C502.484 464.664 502.028 464.352 501.708 463.92C501.404 463.472 501.204 462.864 501.108 462.096H501.924C501.588 463.04 501.212 463.728 500.796 464.16C500.38 464.576 499.884 464.84 499.308 464.952C498.748 465.064 498.044 465.12 497.196 465.12C496.668 465.12 496.124 465.064 495.564 464.952C495.02 464.824 494.532 464.536 494.1 464.088C493.668 463.64 493.348 462.944 493.14 462L494.436 461.952C494.1 462.896 493.66 463.592 493.116 464.04C492.588 464.488 491.98 464.784 491.292 464.928C490.604 465.056 489.836 465.12 488.988 465.12ZM501.54 450.264C501.14 450.264 500.788 450.112 500.484 449.808C500.196 449.504 500.052 449.144 500.052 448.728C500.052 448.312 500.196 447.96 500.484 447.672C500.788 447.384 501.14 447.24 501.54 447.24C501.956 447.24 502.308 447.384 502.596 447.672C502.884 447.96 503.028 448.312 503.028 448.728C503.028 449.144 502.884 449.504 502.596 449.808C502.308 450.112 501.956 450.264 501.54 450.264ZM499.62 453.432C499.22 453.432 498.868 453.28 498.564 452.976C498.276 452.672 498.132 452.312 498.132 451.896C498.132 451.48 498.276 451.128 498.564 450.84C498.868 450.552 499.22 450.408 499.62 450.408C500.036 450.408 500.388 450.552 500.676 450.84C500.964 451.128 501.108 451.48 501.108 451.896C501.108 452.312 500.964 452.672 500.676 452.976C500.388 453.28 500.036 453.432 499.62 453.432ZM503.34 453.432C502.94 453.432 502.588 453.28 502.284 452.976C501.996 452.672 501.852 452.312 501.852 451.896C501.852 451.48 501.996 451.128 502.284 450.84C502.588 450.552 502.94 450.408 503.34 450.408C503.756 450.408 504.108 450.552 504.396 450.84C504.684 451.128 504.828 451.48 504.828 451.896C504.828 452.312 504.684 452.672 504.396 452.976C504.108 453.28 503.756 453.432 503.34 453.432Z" fill="white"/>
<path d="M141.312 208.328C141.312 207.768 141.384 207.072 141.528 206.24C141.688 205.392 142.032 204.384 142.56 203.216L145.512 204.248C145.24 205 145.032 205.648 144.888 206.192C144.744 206.72 144.672 207.24 144.672 207.752C144.672 208.472 144.832 209.088 145.152 209.6C145.488 210.112 145.976 210.504 146.616 210.776C147.272 211.048 148.072 211.184 149.016 211.184C149.976 211.184 150.776 211.08 151.416 210.872C152.056 210.664 152.56 210.368 152.928 209.984C153.296 209.616 153.56 209.184 153.72 208.688C153.88 208.192 153.96 207.656 153.96 207.08C153.96 206.632 153.904 206.128 153.792 205.568C153.696 205.008 153.552 204.4 153.359 203.744C153.168 203.072 152.952 202.368 152.712 201.632L156.072 200.768C156.232 201.376 156.36 201.896 156.456 202.328C156.568 202.76 156.664 203.12 156.744 203.408C156.824 203.68 156.888 203.904 156.936 204.08C157.096 204.56 157.312 204.92 157.584 205.16C157.856 205.4 158.208 205.56 158.64 205.64C159.088 205.72 159.624 205.76 160.248 205.76C160.856 205.76 161.288 205.92 161.544 206.24C161.8 206.544 161.928 206.928 161.928 207.392C161.928 207.888 161.76 208.304 161.424 208.64C161.088 208.96 160.616 209.12 160.008 209.12C159.464 209.12 158.92 209.048 158.376 208.904C157.848 208.744 157.392 208.488 157.008 208.136C156.624 207.784 156.376 207.312 156.264 206.72L157.152 207.68C157.12 208.768 156.904 209.736 156.504 210.584C156.104 211.432 155.544 212.152 154.824 212.744C154.12 213.336 153.264 213.784 152.256 214.088C151.264 214.392 150.152 214.544 148.92 214.544C147.848 214.544 146.848 214.424 145.92 214.184C145.008 213.96 144.2 213.592 143.496 213.08C142.808 212.584 142.272 211.944 141.888 211.16C141.504 210.376 141.312 209.432 141.312 208.328ZM149.136 199.208C148.64 199.208 148.216 199.04 147.864 198.704C147.528 198.368 147.36 197.952 147.36 197.456C147.36 196.96 147.528 196.536 147.864 196.184C148.216 195.832 148.64 195.656 149.136 195.656C149.616 195.656 150.024 195.832 150.36 196.184C150.712 196.536 150.888 196.96 150.888 197.456C150.888 197.952 150.712 198.368 150.36 198.704C150.024 199.04 149.616 199.208 149.136 199.208ZM160 209.12L160.24 205.76H163.6C164.16 205.76 164.584 205.728 164.872 205.664C165.176 205.6 165.384 205.504 165.496 205.376C165.608 205.232 165.664 205.064 165.664 204.872C165.664 204.584 165.536 204.248 165.28 203.864C165.04 203.48 164.72 203.08 164.32 202.664C163.936 202.248 163.528 201.832 163.096 201.416C162.664 200.984 162.248 200.584 161.848 200.216C161.464 199.848 161.144 199.528 160.888 199.256C160.648 198.968 160.528 198.76 160.528 198.632C160.528 198.184 160.552 197.832 160.6 197.576C160.648 197.304 160.712 197.088 160.792 196.928C160.888 196.768 160.992 196.632 161.104 196.52C161.376 196.248 161.784 195.944 162.328 195.608C162.872 195.256 163.512 194.888 164.248 194.504C165 194.104 165.84 193.688 166.768 193.256C167.696 192.808 168.68 192.344 169.72 191.864L171.088 194.792C170.032 195.256 169.088 195.688 168.256 196.088C167.44 196.472 166.704 196.832 166.048 197.168C165.408 197.488 164.832 197.792 164.32 198.08C163.824 198.368 163.376 198.64 162.976 198.896L163.216 197.12C163.904 197.712 164.528 198.272 165.088 198.8C165.648 199.328 166.168 199.856 166.648 200.384C167.128 200.912 167.576 201.456 167.992 202.016C168.424 202.576 168.84 203.184 169.24 203.84C169.592 204.4 169.952 204.816 170.32 205.088C170.704 205.36 171.072 205.544 171.424 205.64C171.792 205.72 172.12 205.76 172.408 205.76C173.016 205.76 173.448 205.92 173.704 206.24C173.976 206.544 174.112 206.928 174.112 207.392C174.112 207.888 173.944 208.304 173.608 208.64C173.272 208.96 172.792 209.12 172.168 209.12C171.64 209.12 171.072 209.032 170.464 208.856C169.856 208.664 169.288 208.36 168.76 207.944C168.232 207.528 167.832 206.96 167.56 206.24L168.856 206.336C168.616 206.848 168.328 207.288 167.992 207.656C167.672 208.008 167.288 208.296 166.84 208.52C166.392 208.728 165.88 208.88 165.304 208.976C164.728 209.072 164.08 209.12 163.36 209.12H160ZM172.188 209.12L172.428 205.76C173.164 205.76 173.692 205.688 174.012 205.544C174.332 205.384 174.524 205.096 174.588 204.68C174.652 204.248 174.668 203.624 174.636 202.808L174.204 191.432H177.588L178.068 203.048C178.1 203.976 178.06 204.816 177.948 205.568C177.852 206.304 177.604 206.936 177.204 207.464C176.82 207.992 176.22 208.4 175.404 208.688C174.604 208.976 173.532 209.12 172.188 209.12Z" fill="white"/>
<path d="M144.512 337.504L145.136 334.144C146.656 334.16 147.88 334.12 148.808 334.024C149.752 333.912 150.464 333.712 150.944 333.424C151.44 333.12 151.76 332.696 151.904 332.152C152.064 331.592 152.12 330.88 152.072 330.016L151.544 319.432H154.904L155.432 330.184C155.48 331.144 155.592 331.88 155.768 332.392C155.944 332.904 156.208 333.264 156.56 333.472C156.912 333.664 157.376 333.76 157.952 333.76C158.544 333.76 158.968 333.92 159.224 334.24C159.496 334.544 159.632 334.928 159.632 335.392C159.632 335.888 159.464 336.304 159.128 336.64C158.792 336.96 158.32 337.12 157.712 337.12C157.008 337.12 156.376 337.032 155.816 336.856C155.256 336.68 154.792 336.376 154.424 335.944C154.056 335.496 153.808 334.896 153.68 334.144H154.76C154.392 334.928 153.888 335.552 153.248 336.016C152.624 336.48 151.872 336.816 150.992 337.024C150.128 337.248 149.152 337.384 148.064 337.432C146.976 337.496 145.792 337.52 144.512 337.504ZM143.36 331.816L142.736 329.44C143.296 329.296 143.752 329.168 144.104 329.056C144.472 328.944 144.744 328.832 144.92 328.72C145.096 328.608 145.184 328.496 145.184 328.384C145.184 328.24 145.112 328.088 144.968 327.928C144.824 327.768 144.664 327.584 144.488 327.376C144.312 327.168 144.152 326.936 144.008 326.68C143.864 326.424 143.792 326.128 143.792 325.792C143.792 325.392 143.904 325.016 144.128 324.664C144.352 324.296 144.712 323.944 145.208 323.608C145.72 323.256 146.392 322.912 147.224 322.576L148.256 324.712C147.584 324.984 147.128 325.224 146.888 325.432C146.664 325.624 146.552 325.808 146.552 325.984C146.552 326.128 146.624 326.296 146.768 326.488C146.912 326.68 147.072 326.896 147.248 327.136C147.44 327.36 147.608 327.616 147.752 327.904C147.896 328.176 147.968 328.472 147.968 328.792C147.968 329.048 147.912 329.312 147.8 329.584C147.704 329.856 147.496 330.12 147.176 330.376C146.872 330.632 146.416 330.88 145.808 331.12C145.2 331.36 144.384 331.592 143.36 331.816ZM144.512 337.504C142.784 337.504 141.32 337.368 140.12 337.096C138.936 336.84 137.968 336.472 137.216 335.992C136.48 335.496 135.944 334.92 135.608 334.264C135.272 333.608 135.104 332.888 135.104 332.104C135.104 331.592 135.144 331.08 135.224 330.568C135.32 330.04 135.432 329.528 135.56 329.032C135.704 328.536 135.832 328.088 135.944 327.688L138.944 328.384C138.88 328.672 138.808 328.984 138.728 329.32C138.648 329.656 138.584 329.984 138.536 330.304C138.488 330.608 138.464 330.888 138.464 331.144C138.464 331.736 138.672 332.264 139.088 332.728C139.52 333.176 140.224 333.528 141.2 333.784C142.176 334.024 143.488 334.144 145.136 334.144L145.616 336.736L144.512 337.504ZM157.703 337.12L157.943 333.76C158.679 333.76 159.207 333.688 159.527 333.544C159.847 333.384 160.039 333.096 160.103 332.68C160.167 332.248 160.183 331.624 160.151 330.808L159.719 319.432H163.103L163.583 331.048C163.615 331.976 163.575 332.816 163.463 333.568C163.367 334.304 163.119 334.936 162.719 335.464C162.335 335.992 161.735 336.4 160.919 336.688C160.119 336.976 159.047 337.12 157.703 337.12ZM170.06 333.76C170.78 333.76 171.332 333.696 171.716 333.568C172.1 333.44 172.364 333.272 172.508 333.064C172.652 332.856 172.724 332.632 172.724 332.392C172.724 332.008 172.612 331.56 172.388 331.048C172.18 330.536 171.916 330 171.596 329.44C171.276 328.88 170.94 328.344 170.588 327.832C170.252 327.32 169.948 326.872 169.676 326.488L172.532 324.592C173.22 325.52 173.812 326.44 174.308 327.352C174.804 328.248 175.204 329.08 175.508 329.848C175.828 330.616 176.052 331.272 176.18 331.816C176.308 332.328 176.5 332.728 176.756 333.016C177.028 333.288 177.34 333.48 177.692 333.592C178.044 333.704 178.396 333.76 178.748 333.76C179.356 333.76 179.788 333.92 180.044 334.24C180.316 334.544 180.452 334.928 180.452 335.392C180.452 335.888 180.284 336.304 179.948 336.64C179.628 336.96 179.148 337.12 178.508 337.12C177.804 337.12 177.188 337.024 176.66 336.832C176.132 336.64 175.684 336.336 175.316 335.92C174.948 335.504 174.636 334.976 174.38 334.336L175.844 334.648C175.716 335.096 175.42 335.512 174.956 335.896C174.508 336.264 173.908 336.568 173.156 336.808C172.42 337.032 171.548 337.144 170.54 337.144C170.06 337.144 169.524 337.104 168.932 337.024C168.356 336.944 167.78 336.824 167.204 336.664C166.644 336.504 166.132 336.296 165.668 336.04L166.844 332.992C167.436 333.248 168.004 333.44 168.548 333.568C169.108 333.696 169.612 333.76 170.06 333.76ZM170.204 322.768C169.708 322.768 169.284 322.6 168.932 322.264C168.596 321.928 168.428 321.512 168.428 321.016C168.428 320.52 168.596 320.096 168.932 319.744C169.284 319.392 169.708 319.216 170.204 319.216C170.684 319.216 171.092 319.392 171.428 319.744C171.78 320.096 171.956 320.52 171.956 321.016C171.956 321.512 171.78 321.928 171.428 322.264C171.092 322.6 170.684 322.768 170.204 322.768ZM178.539 337.12L178.779 333.76C179.515 333.76 180.043 333.688 180.363 333.544C180.683 333.384 180.875 333.096 180.939 332.68C181.003 332.248 181.019 331.624 180.987 330.808L180.555 319.432H183.939L184.419 331.048C184.451 331.976 184.411 332.816 184.299 333.568C184.203 334.304 183.955 334.936 183.555 335.464C183.171 335.992 182.571 336.4 181.755 336.688C180.955 336.976 179.883 337.12 178.539 337.12Z" fill="white"/>
<path d="M134.616 442.32V440.64L140.28 438.96V440.688L134.616 442.32ZM134.616 444.84V443.16L140.28 441.48V443.208L134.616 444.84ZM136.045 465L135.541 447.432H138.901L139.405 465H136.045ZM140.462 470.544L139.238 467.568C140.086 467.28 140.862 466.944 141.566 466.56C142.286 466.176 142.91 465.752 143.438 465.288C143.966 464.824 144.374 464.32 144.662 463.776C144.95 463.216 145.094 462.616 145.094 461.976C145.094 461.304 144.942 460.568 144.638 459.768C144.334 458.968 143.966 458.152 143.534 457.32L146.678 455.808C146.966 456.304 147.214 456.84 147.422 457.416C147.646 457.976 147.83 458.48 147.974 458.928C148.118 459.376 148.214 459.68 148.262 459.84C148.486 460.608 148.79 461.12 149.174 461.376C149.574 461.632 150.214 461.76 151.094 461.76C151.702 461.76 152.134 461.92 152.39 462.24C152.662 462.544 152.798 462.928 152.798 463.392C152.798 463.888 152.63 464.304 152.294 464.64C151.958 464.96 151.478 465.12 150.854 465.12C150.198 465.12 149.622 465.024 149.126 464.832C148.63 464.64 148.23 464.36 147.926 463.992C147.638 463.624 147.454 463.192 147.374 462.696L148.262 463.2C148.166 464.048 147.886 464.848 147.422 465.6C146.974 466.368 146.39 467.072 145.67 467.712C144.95 468.352 144.142 468.912 143.246 469.392C142.35 469.872 141.422 470.256 140.462 470.544ZM150.883 465.12L151.123 461.76H154.483C155.043 461.76 155.467 461.728 155.755 461.664C156.059 461.6 156.267 461.504 156.379 461.376C156.491 461.232 156.547 461.064 156.547 460.872C156.547 460.584 156.419 460.248 156.163 459.864C155.923 459.48 155.603 459.08 155.203 458.664C154.819 458.248 154.411 457.832 153.979 457.416C153.547 456.984 153.131 456.584 152.731 456.216C152.347 455.848 152.027 455.528 151.771 455.256C151.531 454.968 151.411 454.76 151.411 454.632C151.411 454.184 151.435 453.832 151.483 453.576C151.531 453.304 151.595 453.088 151.675 452.928C151.771 452.768 151.875 452.632 151.987 452.52C152.259 452.248 152.667 451.944 153.211 451.608C153.755 451.256 154.395 450.888 155.131 450.504C155.883 450.104 156.723 449.688 157.651 449.256C158.579 448.808 159.563 448.344 160.603 447.864L161.971 450.792C160.915 451.256 159.971 451.688 159.139 452.088C158.323 452.472 157.587 452.832 156.931 453.168C156.291 453.488 155.715 453.792 155.203 454.08C154.707 454.368 154.259 454.64 153.859 454.896L154.099 453.12C154.787 453.712 155.411 454.272 155.971 454.8C156.531 455.328 157.051 455.856 157.531 456.384C158.011 456.912 158.459 457.456 158.875 458.016C159.307 458.576 159.723 459.184 160.123 459.84C160.475 460.4 160.835 460.816 161.203 461.088C161.587 461.36 161.955 461.544 162.307 461.64C162.675 461.72 163.003 461.76 163.291 461.76C163.899 461.76 164.331 461.92 164.587 462.24C164.859 462.544 164.995 462.928 164.995 463.392C164.995 463.888 164.827 464.304 164.491 464.64C164.155 464.96 163.675 465.12 163.051 465.12C162.523 465.12 161.955 465.032 161.347 464.856C160.739 464.664 160.171 464.36 159.643 463.944C159.115 463.528 158.715 462.96 158.443 462.24L159.739 462.336C159.499 462.848 159.211 463.288 158.875 463.656C158.555 464.008 158.171 464.296 157.723 464.52C157.275 464.728 156.763 464.88 156.187 464.976C155.611 465.072 154.963 465.12 154.243 465.12H150.883ZM163.07 465.12L163.31 461.76C163.838 461.76 164.27 461.72 164.606 461.64C164.942 461.544 165.214 461.344 165.422 461.04C165.646 460.72 165.838 460.248 165.998 459.624C166.174 458.984 166.366 458.12 166.574 457.032L169.694 457.608C169.646 457.848 169.59 458.128 169.526 458.448C169.462 458.768 169.406 459.096 169.358 459.432C169.31 459.752 169.286 460.04 169.286 460.296C169.286 460.744 169.43 461.104 169.718 461.376C170.006 461.632 170.55 461.76 171.35 461.76C171.75 461.76 172.094 461.72 172.382 461.64C172.686 461.544 172.942 461.344 173.15 461.04C173.374 460.72 173.566 460.232 173.726 459.576C173.902 458.904 174.07 458 174.23 456.864L177.398 457.368C177.334 457.736 177.27 458.128 177.206 458.544C177.142 458.96 177.086 459.344 177.038 459.696C176.99 460.048 176.966 460.336 176.966 460.56C176.966 460.768 177.022 460.968 177.134 461.16C177.262 461.336 177.486 461.48 177.806 461.592C178.142 461.704 178.614 461.76 179.222 461.76C179.654 461.76 180.022 461.704 180.326 461.592C180.646 461.48 180.886 461.296 181.046 461.04C181.222 460.784 181.31 460.448 181.31 460.032C181.31 459.44 181.174 458.664 180.902 457.704C180.63 456.744 180.31 455.736 179.942 454.68L183.326 453.672C183.582 454.36 183.806 455.096 183.998 455.88C184.206 456.648 184.366 457.4 184.478 458.136C184.606 458.856 184.67 459.488 184.67 460.032C184.67 460.848 184.542 461.576 184.286 462.216C184.03 462.84 183.67 463.368 183.206 463.8C182.742 464.232 182.19 464.56 181.55 464.784C180.91 465.008 180.206 465.12 179.438 465.12C178.51 465.12 177.75 465.032 177.158 464.856C176.566 464.664 176.11 464.352 175.79 463.92C175.486 463.472 175.286 462.864 175.19 462.096H176.006C175.67 463.04 175.294 463.728 174.878 464.16C174.462 464.576 173.966 464.84 173.39 464.952C172.83 465.064 172.126 465.12 171.278 465.12C170.75 465.12 170.206 465.064 169.646 464.952C169.102 464.824 168.614 464.536 168.182 464.088C167.75 463.64 167.43 462.944 167.222 462L168.518 461.952C168.182 462.896 167.742 463.592 167.198 464.04C166.67 464.488 166.062 464.784 165.374 464.928C164.686 465.056 163.918 465.12 163.07 465.12ZM175.622 450.264C175.222 450.264 174.87 450.112 174.566 449.808C174.278 449.504 174.134 449.144 174.134 448.728C174.134 448.312 174.278 447.96 174.566 447.672C174.87 447.384 175.222 447.24 175.622 447.24C176.038 447.24 176.39 447.384 176.678 447.672C176.966 447.96 177.11 448.312 177.11 448.728C177.11 449.144 176.966 449.504 176.678 449.808C176.39 450.112 176.038 450.264 175.622 450.264ZM173.702 453.432C173.302 453.432 172.95 453.28 172.646 452.976C172.358 452.672 172.214 452.312 172.214 451.896C172.214 451.48 172.358 451.128 172.646 450.84C172.95 450.552 173.302 450.408 173.702 450.408C174.118 450.408 174.47 450.552 174.758 450.84C175.046 451.128 175.19 451.48 175.19 451.896C175.19 452.312 175.046 452.672 174.758 452.976C174.47 453.28 174.118 453.432 173.702 453.432ZM177.422 453.432C177.022 453.432 176.67 453.28 176.366 452.976C176.078 452.672 175.934 452.312 175.934 451.896C175.934 451.48 176.078 451.128 176.366 450.84C176.67 450.552 177.022 450.408 177.422 450.408C177.838 450.408 178.19 450.552 178.478 450.84C178.766 451.128 178.91 451.48 178.91 451.896C178.91 452.312 178.766 452.672 178.478 452.976C178.19 453.28 177.838 453.432 177.422 453.432Z" fill="white"/>
<defs>
<filter id="filter0_d_124_2" x="0" y="0" width="972" height="540" filterUnits="userSpaceOnUse" color-interpolation-filters="sRGB">
<feFlood flood-opacity="0" result="BackgroundImageFix"/>
<feColorMatrix in="SourceAlpha" type="matrix" values="0 0 0 0 0 0 0 0 0 0 0 0 0 0 0 0 0 0 127 0" result="hardAlpha"/>
<feOffset dx="8" dy="8"/>
<feGaussianBlur stdDeviation="2"/>
<feComposite in2="hardAlpha" operator="out"/>
<feColorMatrix type="matrix" values="0 0 0 0 0 0 0 0 0 0 0 0 0 0 0 0 0 0 0.25 0"/>
<feBlend mode="normal" in2="BackgroundImageFix" result="effect1_dropShadow_124_2"/>
<feBlend mode="normal" in="SourceGraphic" in2="effect1_dropShadow_124_2" result="shape"/>
</filter>
</defs>
</svg>
