<svg width="367" height="213" viewBox="0 0 367 213" fill="none" xmlns="http://www.w3.org/2000/svg">
<path d="M313.557 2.40144C313.038 3.76447 312.259 6.42557 311.805 8.37273C311.091 11.4882 311.091 12.0723 312.324 14.8633C313.297 17.07 313.817 20.3802 314.336 27.9092C314.725 33.4261 316.478 49.5226 318.295 63.607C322.709 98.6558 324.786 117.024 324.786 121.697C324.786 124.942 324.461 126.111 323.163 127.863C320.047 132.082 318.23 132.731 309.857 132.731C303.172 132.731 302.004 132.536 298.369 130.979C293.112 128.642 288.244 125.721 288.244 124.942C288.244 124.553 291.489 122.865 295.384 121.113L302.458 117.998L304.47 113C305.898 109.56 306.288 107.807 305.833 107.288C304.86 106.055 295.773 102.745 290.256 101.641C280.91 99.6943 269.746 100.603 259.361 104.108C250.729 107.029 250.534 107.223 248.262 113.065C247.159 115.921 246.315 118.387 246.38 118.452C246.51 118.582 248.392 118.192 250.534 117.608C253.844 116.764 254.948 116.699 257.219 117.349C259.945 118.192 267.734 123.125 268.123 124.358C268.448 125.267 255.791 131.563 252.092 132.342C249.236 132.926 243.849 133.185 235.151 133.121L230.933 133.056L227.752 128.837C226 126.5 224.377 124.618 224.118 124.618C223.598 124.618 222.949 127.668 222.495 133.056C222.106 137.21 222.17 137.599 223.988 140.26C226.714 144.219 230.608 151.943 231.062 154.345C231.712 157.525 230.868 159.537 227.233 163.366C219.769 171.285 203.153 181.345 192.379 184.331C185.434 186.278 174.465 186.797 170.701 185.369C167.455 184.136 163.691 180.307 162.198 176.802C158.888 168.883 160.121 153.955 165.054 141.623C167.52 135.522 166.482 133.445 163.496 138.508C161.419 142.077 158.434 150.71 157.265 156.746C155.902 163.561 156.032 180.436 157.46 185.045C160.251 193.937 165.768 198.35 174.919 199.064C190.172 200.168 210.812 190.237 227.622 173.686C233.269 168.104 234.892 163.561 234.892 152.722V145.517L237.878 145.842C244.498 146.621 254.428 143.181 268.513 135.068L276.691 130.459L283.701 135.068C295.773 143.116 304.795 146.621 310.896 145.777C317.127 144.933 323.033 140.39 326.343 133.899C328.485 129.616 329.264 126.63 329.978 119.361C330.562 113.714 330.367 110.728 327.706 86.5835C326.084 71.9798 323.747 51.8592 322.449 41.9287C321.216 31.9982 320.307 23.4956 320.437 23.1711C320.567 22.7817 321.605 23.6904 322.838 25.1832C324.915 27.7794 326.733 28.753 326.733 27.1952C326.733 25.2481 323.033 15.9017 319.269 8.43764C316.932 3.76447 314.92 -4.57764e-05 314.79 -4.57764e-05C314.66 -4.57764e-05 314.141 1.10335 313.557 2.40144ZM288.309 112.675C289.088 112.87 289.737 113.26 289.737 113.519C289.672 113.844 282.338 117.478 279.352 118.647C279.092 118.712 277.34 117.413 275.458 115.726L271.953 112.61L273.9 112.156C275.977 111.637 285.972 112.026 288.309 112.675Z" fill="white"/>
<path d="M349.125 7.46408C348.541 8.69728 347.762 11.2286 347.373 12.9161C346.724 15.707 346.788 16.4859 347.957 19.2768C348.995 21.5485 349.579 25.5726 350.358 34.3997C351.786 50.3664 353.344 64.3859 357.628 100.928C360.938 128.512 361.197 132.277 360.938 140.325C360.678 145.647 360.808 149.282 361.133 149.282C361.457 149.282 362.366 148.114 363.145 146.621C367.558 137.859 367.428 123.06 362.366 82.105C357.498 42.1884 356.005 28.9477 356.265 28.6881C356.394 28.4934 357.822 29.5318 359.315 30.8949L362.106 33.4262L362.301 31.6088C362.56 29.2073 352.63 6.68523 350.748 5.51692C350.358 5.25731 349.644 6.10107 349.125 7.46408Z" fill="white"/>
<path d="M11.8127 43.6163C11.2286 44.1355 10.6445 45.9529 10.3848 48.0298C10.1901 49.977 9.80069 52.703 9.60597 54.066C9.15163 56.9867 10.3848 58.7392 13.3056 59.3882C14.344 59.6479 15.1878 60.0373 15.1878 60.2969C15.1878 61.0758 12.2671 63.6071 7.59391 66.8523C2.85583 70.1625 0.843769 72.7587 0.778864 75.8742C0.649053 79.0545 1.81735 79.8334 6.68524 79.8334C11.618 79.8334 16.421 78.6002 21.7432 75.9391C27.7145 72.8885 27.7794 71.9798 21.873 73.4727C15.1878 75.0953 3.89431 75.8093 3.18036 74.5761C2.79092 74.0568 3.05055 73.4727 3.82941 73.0832C8.95692 70.0327 12.981 66.9172 14.8633 64.4508C16.0316 62.8931 17.135 61.2705 17.2648 60.946C17.3946 60.5565 18.7576 60.5565 21.0293 61.0109C24.3394 61.6599 24.664 61.595 25.7025 60.2969C27.39 58.2849 28.2338 54.7151 27.4549 52.703C25.9621 48.6789 18.4331 42.8374 14.8633 42.8374C13.7599 42.8374 12.3969 43.2268 11.8127 43.6163ZM16.7455 51.0155C16.9403 51.5996 17.135 52.7679 17.135 53.6117C17.135 54.9747 16.8104 55.1694 14.9282 55.1694C13.7599 55.1694 12.3969 54.7151 11.9426 54.1958C11.2286 53.3521 11.3584 52.8977 12.5916 51.5996C14.344 49.7823 16.1614 49.5227 16.7455 51.0155ZM23.2361 53.4819C26.4813 56.5324 26.2866 57.3113 22.5221 56.7271C20.7697 56.5324 19.3417 56.2728 19.2768 56.2079C18.8874 55.8834 19.9908 51.2751 20.4451 51.2751C20.7048 51.2751 22.0029 52.2487 23.2361 53.4819Z" fill="white"/>
<path d="M187.381 64.4508C185.045 67.0471 185.11 67.3067 189.523 71.5255C197.571 79.1843 198.805 84.9609 194.391 94.6967C189.653 105.211 188.874 110.144 191.405 113.973C192.184 115.207 192.963 115.531 195.17 115.531C198.545 115.531 200.297 113.973 201.79 109.755C203.218 105.601 203.023 105.211 200.752 107.937C198.545 110.598 195.819 111.183 194.261 109.235C192.898 107.613 193.288 103.264 195.105 99.6294C202.959 84.182 201.725 72.3693 191.6 65.0999L188.679 63.0229L187.381 64.4508Z" fill="white"/>
<path d="M150.905 71.5255C147.919 78.1458 146.816 85.4801 148.243 89.1797C148.763 90.5427 149.282 90.8672 151.164 90.8672C153.306 90.8672 153.631 90.6076 154.734 88.0763C155.448 86.5835 156.032 84.7662 155.967 84.0522C155.967 82.8839 155.837 82.9488 154.669 84.5065C152.982 86.8431 151.034 86.8431 150.191 84.6364C149.412 82.6892 150.191 77.4968 152.138 71.3308C152.787 69.1889 153.176 67.5014 152.982 67.5014C152.852 67.5014 151.878 69.3187 150.905 71.5255Z" fill="white"/>
<path d="M259.361 74.5111C256.181 81.2613 255.337 90.9321 257.674 92.8793C258.128 93.2687 259.296 93.4634 260.335 93.3336C262.217 93.1389 263.775 90.7374 264.748 86.6484L265.138 84.7012L263.19 86.9729C261.568 88.8552 261.114 89.1148 260.075 88.5307C258.452 87.4922 258.582 80.9367 260.4 74.9655C261.178 72.4991 261.698 70.4221 261.568 70.2923C261.438 70.1625 260.464 72.0447 259.361 74.5111Z" fill="white"/>
<path d="M299.278 71.85C297.071 76.1338 295.578 81.8454 295.578 86.1941C295.578 91.4514 296.422 93.0091 299.148 92.6846C301.225 92.4899 302.913 90.1533 303.691 86.3239L304.211 84.0522L302.393 86.1941C300.381 88.5956 299.148 88.7903 298.174 87.0378C297.201 85.1556 297.396 82.819 299.083 76.2636C299.927 73.0183 300.511 70.2923 300.446 70.2274C300.316 70.0976 299.797 70.8115 299.278 71.85Z" fill="white"/>
<path d="M45.3687 81.456C42.7076 87.3624 42.7076 87.8816 45.174 89.7638C46.3423 90.6076 49.0034 92.2952 51.0804 93.4634C54.066 95.151 54.9747 95.4106 55.7535 94.7615C56.9867 93.7231 59.6478 85.4801 59.1286 84.182C58.7392 83.1435 49.0683 77.8862 47.6404 77.8862C47.251 77.8862 46.2125 79.5088 45.3687 81.456Z" fill="white"/>
<path d="M127.214 78.4054C126.5 79.5737 125.981 89.5691 126.63 89.5691C127.019 89.5691 128.642 92.2952 130.33 95.5404C132.342 99.6294 135.782 104.627 140.779 110.858C144.868 115.986 148.438 120.918 148.633 121.827C149.152 123.904 147.529 125.397 141.104 128.772C131.628 133.77 124.034 134.354 117.933 130.524C113.324 127.668 111.637 125.202 111.832 121.632C111.832 120.075 111.637 118.776 111.312 118.776C110.404 118.776 107.418 122.541 105.731 125.916C102.875 131.498 99.4347 133.121 90.2831 133.121C84.6364 133.121 81.0017 132.147 76.5232 129.486C72.8236 127.344 69.838 123.904 65.5542 117.024C60.7513 109.235 58.6743 107.483 55.1694 108.002C51.0804 108.716 46.537 111.572 42.3182 116.18C37.0609 121.892 34.205 126.89 29.0775 139.351C24.4044 150.775 22.0678 154.085 18.0436 154.864C13.3705 155.708 10.255 153.631 7.4641 147.789C3.7645 140.065 3.24526 136.56 3.37507 123.125C3.43998 113.649 3.31016 110.923 2.66111 111.183C1.03848 111.702 0.0649052 118.322 0 130.135C0 141.169 0.0649052 142.077 1.68753 147.01C4.34865 154.799 9.08673 161.679 13.3705 163.95C15.772 165.184 20.3153 165.119 22.4572 163.691C25.9621 161.419 27.5847 158.498 32.9718 145.063C37.0609 134.808 39.7869 130.459 44.5899 126.37C48.2895 123.255 50.1068 122.152 52.8977 121.373C55.4939 120.594 57.8954 122.736 61.2705 128.902C64.5807 135.003 67.6312 138.443 72.4991 141.558C80.0281 146.426 91.4514 147.4 98.2016 143.7C101.771 141.818 103.134 140.26 106.445 134.484L108.457 130.979L108.846 133.51C109.495 137.534 112.481 141.104 117.219 143.376C122.93 146.231 125.202 146.426 130.589 144.803C135.262 143.376 143.505 138.443 146.361 135.262C149.152 132.212 151.359 128.318 152.527 124.293C154.604 117.089 152.657 110.988 145.582 102.291C139.806 95.2159 136.561 90.8023 136.561 90.0235C136.561 89.6989 137.404 89.5691 138.378 89.7638C140.844 90.2831 142.272 89.3095 141.363 87.8167C140.65 86.5835 128.967 77.8862 128.058 77.8862C127.798 77.8862 127.409 78.1458 127.214 78.4054Z" fill="white"/>
<path d="M26.676 83.5979C23.6255 90.348 23.6904 91.062 27.1303 93.5933C28.753 94.7616 31.6737 96.5789 33.6209 97.6174C37.9046 99.954 38.6186 99.5646 40.2412 94.437C41.8638 89.3095 41.3446 88.271 34.8541 83.9224C31.6737 81.8454 28.9477 80.093 28.753 79.9632C28.5583 79.8983 27.5847 81.5209 26.676 83.5979Z" fill="white"/>
<path d="M103.264 83.533C100.928 88.7903 100.214 91.9057 100.214 96.4491C100.214 101.187 101.122 102.745 103.783 102.42C105.341 102.291 106.055 101.642 107.223 99.3049C108.002 97.7472 108.651 95.865 108.651 95.0861C108.651 93.9827 108.457 93.9827 107.483 95.6053C106.055 97.9419 104.173 98.5261 103.005 96.9683C101.836 95.3457 101.966 92.7495 103.719 85.9994C104.562 82.7541 105.211 80.093 105.082 79.9632C105.017 79.8983 104.173 81.5209 103.264 83.533Z" fill="white"/>
<path d="M74.6409 87.4922C70.8764 95.6702 69.1889 106.38 71.201 110.339C72.9534 113.779 76.653 114.038 78.9247 110.923C80.0281 109.365 82.2997 101.901 81.7805 101.382C81.5858 101.252 81.0016 102.031 80.4824 103.134C79.8983 104.238 78.6651 105.601 77.8213 106.185C76.2636 107.223 76.0688 107.158 74.8357 106.055C73.6025 104.952 73.4726 104.303 73.7972 99.6294C73.9919 96.7736 74.9006 91.8408 75.8741 88.6605C76.7828 85.545 77.4319 82.819 77.302 82.6892C77.1722 82.5594 76.0039 84.7013 74.6409 87.4922Z" fill="white"/>
<path d="M49.3928 137.404C47.3159 142.142 46.4072 146.037 46.3423 150.45C46.3423 154.864 47.1861 156.421 49.5226 156.421C51.5996 156.421 52.9626 155.058 54.066 151.943C55.1694 148.633 54.9747 147.335 53.6766 149.412C52.4434 151.424 51.34 152.008 49.9121 151.489C48.2245 150.84 48.2245 147.205 49.8472 140.52C50.6909 136.95 51.34 133.964 51.2751 133.834C51.1453 133.77 50.3015 135.392 49.3928 137.404Z" fill="white"/>
<path d="M203.218 138.702C200.882 144.089 200.168 147.075 200.168 151.943C200.168 155.383 200.427 156.421 201.466 157.395C204.127 159.797 207.307 156.941 208.346 151.099L208.735 148.957L207.372 151.034C205.879 153.436 203.802 153.825 202.764 151.943C201.79 150.061 201.92 148.114 203.672 141.428C204.581 138.053 205.165 135.262 205.1 135.133C204.971 135.068 204.127 136.69 203.218 138.702Z" fill="white"/>
<path d="M273.51 145.842C268.902 149.801 267.02 152.917 267.02 156.486C267.02 159.018 267.344 159.797 268.707 160.9C269.616 161.614 270.655 162.263 270.979 162.393C271.369 162.523 270.525 164.794 269.097 167.52C264.554 176.153 264.878 181.994 270.006 183.682C273.965 185.045 281.104 184.201 285.907 181.929C288.179 180.826 290.97 179.138 292.008 178.165L293.956 176.477L292.008 176.802C290.97 176.996 288.049 177.581 285.518 178.1C280.001 179.333 273.121 179.398 270.914 178.295C266.371 176.023 270.07 169.467 282.078 158.628C284.155 156.746 285.128 155.318 285.453 153.566C285.713 152.203 285.778 150.969 285.583 150.775C285.453 150.645 283.636 151.813 281.624 153.436C277.405 156.876 275.198 157.265 272.407 154.864L270.59 153.306L271.953 151.424C273.575 149.282 275.912 148.763 277.015 150.32C277.729 151.294 277.989 151.164 279.352 149.022C280.585 147.01 280.715 146.296 280.066 144.998C279.092 142.726 276.821 143.051 273.51 145.842Z" fill="white"/>
<path d="M300.576 152.982C297.071 159.732 295.578 171.22 297.915 173.556C300.122 175.763 302.718 174.206 304.405 169.597C305.703 165.963 305.509 164.924 303.951 167.261C302.458 169.597 300.771 169.987 299.473 168.429C298.369 167.131 298.953 161.419 300.706 155.772C302.134 151.229 302.069 150.061 300.576 152.982Z" fill="white"/>
<path d="M319.723 152.982C318.62 153.436 316.348 157.979 316.348 159.732C316.348 160.77 316.608 160.965 317.516 160.64C321.216 159.018 323.488 159.861 323.488 162.782C323.488 164.794 321.605 167.845 316.867 173.556C314.79 176.023 313.232 178.165 313.362 178.359C313.817 178.814 319.983 173.427 322.514 170.376C327.382 164.405 329.329 157.525 327.122 154.15C326.278 152.852 325.564 152.527 323.293 152.592C321.8 152.592 320.177 152.787 319.723 152.982Z" fill="white"/>
<path d="M135.262 167.196C134.159 171.22 133.899 173.102 134.419 173.881C135.198 175.114 146.361 181.15 147.075 180.696C149.087 179.463 151.229 170.766 149.931 169.078C149.347 168.364 137.664 161.614 136.95 161.614C136.82 161.614 136.041 164.145 135.262 167.196Z" fill="white"/>
<path d="M113.779 173.362C112.481 175.893 110.663 181.799 110.988 182.578C111.118 183.033 113.649 184.85 116.57 186.537C122.801 190.172 122.671 190.172 125.007 182.968C126.695 177.645 126.565 177.386 120.204 174.205C115.077 171.609 114.752 171.544 113.779 173.362Z" fill="white"/>
<path d="M97.6174 176.607C97.228 177.321 96.1895 179.787 95.2808 182.124L93.7231 186.343L95.4755 187.965C97.4227 189.783 103.589 193.417 104.692 193.417C106.704 193.417 109.495 185.045 108.197 182.838C107.937 182.254 105.536 180.307 103.005 178.554C98.4612 175.374 98.2664 175.309 97.6174 176.607Z" fill="white"/>
<path d="M230.738 192.314C227.363 200.168 226.389 207.891 228.466 210.812C230.154 213.278 232.62 212.5 234.438 208.995C235.216 207.437 235.865 205.555 235.865 204.906C235.865 203.802 235.671 203.867 234.502 205.36C232.88 207.372 230.998 207.567 229.959 205.685C229.18 204.192 229.894 198.805 231.647 193.028C232.88 188.939 232.361 188.55 230.738 192.314Z" fill="white"/>
</svg>
